<?xml version="1.0" encoding="utf-8"?>
<!-- Generator: Adobe Illustrator 25.0.0, SVG Export Plug-In . SVG Version: 6.00 Build 0)  -->
<svg version="1.1" id="Capa_1" xmlns="http://www.w3.org/2000/svg" xmlns:xlink="http://www.w3.org/1999/xlink" x="0px" y="0px"
	 viewBox="0 0 460.6 460.6" style="enable-background:new 0 0 460.6 460.6;" xml:space="preserve">
<style type="text/css">
	.st0{fill:#FFFFFF;}
	.st1{fill:none;}
</style>
<g>
	<path class="st0" d="M402.8,373.1l-4.6-61.8c-0.9-12.1-6.2-18.3-23.6-20.3c-4.5-0.5-23.2-1.3-53.4-3.6c-7.5-0.6-14.1,5-14.6,12.5
		c-0.6,7.5,5,14.1,12.5,14.6l35.4,2.7l2.8,37.6l-12.5-7.2c-5-2.9-11.3-2.3-15.7,1.5l-26.9,23.1c-5.7,4.9-6.3,13.5-1.4,19.2
		c4.9,5.7,13.5,6.3,19.2,1.4l19.5-16.8c0.1,0.1,32.5,18.7,32.6,18.8c2,1.1,4.9,2.1,10.3,1.7C394.6,395.8,403.7,385.2,402.8,373.1z"
		/>
	<circle class="st0" cx="365" cy="252.4" r="27"/>
	<circle class="st0" cx="168.9" cy="101.8" r="37.9"/>
	<path class="st0" d="M263.8,180.7l-59.4,22l-45.2-38.5l11.2,5.5c-1.8-9.1-8.5-16.9-18.1-19.6c-17.7-5.1-36.6-2.5-52.3,7
		c-15.7,9.5-26.7,25.2-30.4,43.2l-10.9,53.5C56,267,59.4,280.8,68,291.3c8.2,10,19.7,17,33.2,17c8,0,13.1,0,41.9,0l-61.4,52.1
		c-8.7,7.4-9.7,20.4-2.4,29.1c7.4,8.7,20.4,9.7,29.1,2.4l104.4-88.6c6.6-5.6,9-14.7,6-22.8c-2.9-8-10.5-13.5-19.4-13.5l-54.1,0.2
		l13.4-46.7l-17.9-26.7l48.8,41.6c4.7,4,11.3,5.2,17.1,3l68.9-25.5c8.9-3.3,13.4-13.2,10.1-22.1
		C282.6,181.9,272.7,177.4,263.8,180.7z"/>
</g>
<rect x="8.1" y="8.1" class="st1" width="444.5" height="444.5"/>
</svg>
