<svg width="1441" height="500" viewBox="0 0 1441 500" fill="none" xmlns="http://www.w3.org/2000/svg">
<rect width="1440" height="499" transform="translate(1 1)" fill="black" fill-opacity="0.99"/>
<rect x="1" y="1" width="1440" height="499" fill="black"/>
<path d="M1425.3 0.883839C1234.38 -0.160246 1174.87 2.02885 965.5 0.883838C1083.43 86.3873 1081.57 478.211 1181 494.001L1441 494.001L1441 286.5L1441 280.5L1440.33 276.578L1441 274.666L1441 276.578L1439.75 274.666L1440.33 270.15L1440.33 262.247L1440.33 258.295L1440.33 135.234L1440.33 11.0449L1440.33 9.35138L1440.33 7.09337L1439.75 4.83536L1438.59 3.14189L1437.44 2.01286L1435.7 1.44839L1433.97 0.883846L1425.3 0.883839Z" fill="#262626" fill-opacity="0.62"/>
<path d="M1440.65 178.5C1418.39 175.437 1328.79 144.786 1312.5 124C1296.21 103.214 1224.43 28.9565 1223 1.79256L1433.78 1.22644L1435.7 1.79094L1436.28 1.79094L1436.86 2.35544L1438.01 2.91994L1439.17 4.04894L1440.65 6.87137L1440.65 178.5Z" fill="#121212"/>
<path d="M36 2H1V499.5H564.5C576.5 454 551.2 344.4 354 270C156.8 195.6 59.8333 58 36 2Z" fill="#121212" stroke="black"/>
<path d="M377.684 1H1V500H369.191C408.658 419.323 353.205 301.296 331.223 163.847C313.638 53.888 354.87 9.46607 377.684 1Z" fill="#262626" fill-opacity="0.59"/>
</svg>
