<svg xmlns="http://www.w3.org/2000/svg" viewBox="0 0 34.03 34.03"><defs><style>.cls-1{fill:#ce0033;}.cls-2{fill:none;}</style></defs><g id="Calque_2" data-name="Calque 2"><g id="Calque_1-2" data-name="Calque 1"><path class="cls-1" d="M27,14.44A10.9,10.9,0,0,0,19.06,8l1.58-2.52-1.6-1L17,7.84A10.81,10.81,0,0,0,7,14.44a4.24,4.24,0,0,0,0,8.47,10.84,10.84,0,0,0,20,0,4.25,4.25,0,0,0,4.16-4.23,4.23,4.23,0,0,0-1.22-3A4.18,4.18,0,0,0,27,14.44Zm1.6,5.89A2.34,2.34,0,0,1,27,21l-1.22,0-.48,1.13a8.95,8.95,0,0,1-13.18,4,9,9,0,0,1-3.3-4l-.48-1.13L7.07,21a2.36,2.36,0,0,1,0-4.71l1.22,0,.48-1.12a8.94,8.94,0,0,1,13.18-4,8.88,8.88,0,0,1,3.3,4l.48,1.12,1.22,0a2.36,2.36,0,0,1,2.27,2.81A2.41,2.41,0,0,1,28.59,20.33Z"/><path class="cls-1" d="M11.83,16.32h2.36v2.36H11.83Z"/><path class="cls-1" d="M19.84,16.32H22.2v2.36H19.84Z"/><path class="cls-1" d="M17,25.27a4.71,4.71,0,0,0,1.81-.36,4.47,4.47,0,0,0,1.52-1,4.69,4.69,0,0,0,1-1.53,4.81,4.81,0,0,0,.35-1.8H12.3a4.73,4.73,0,0,0,1.38,3.33A4.67,4.67,0,0,0,17,25.27Z"/><rect class="cls-2" width="34.03" height="34.03"/></g></g></svg>