<svg xmlns="http://www.w3.org/2000/svg" viewBox="0 0 37.59 37.59"><defs><style>.cls-1{fill:#ce0033;fill-rule:evenodd;}.cls-2{fill:none;opacity:0.3;}</style></defs><g id="Calque_2" data-name="Calque 2"><g id="Calque_1-2" data-name="Calque 1"><path class="cls-1" d="M18.8,8.83a1.86,1.86,0,0,0,1.32-.57,1.93,1.93,0,0,0,0-2.72,1.83,1.83,0,0,0-2.65,0,1.93,1.93,0,0,0,0,2.72A1.86,1.86,0,0,0,18.8,8.83Zm0,1.54a3.36,3.36,0,0,0,2.39-1,3.53,3.53,0,0,0,0-4.9,3.32,3.32,0,0,0-4.79,0,3.53,3.53,0,0,0,0,4.9A3.37,3.37,0,0,0,18.8,10.37Z"/><path class="cls-1" d="M16.51,13.45a2.55,2.55,0,0,0-2.19,1.18,7.81,7.81,0,0,0-.88,2.09c-.15.51-.17.61-.25.89h0c-.1.39-.27,1.08-.9,3.33a.77.77,0,0,0,.56.94.81.81,0,0,0,1-.54c.69-2.48.83-3.07.91-3.37h0c.06-.23.08-.32.23-.84a6.44,6.44,0,0,1,.68-1.67h0l1.27.67-3,11a17.66,17.66,0,0,0,4.83.54,18.16,18.16,0,0,0,4.83-.52l-3-11,1.27-.67h0a6.1,6.1,0,0,1,.68,1.67c.15.53.17.61.23.84h0c.08.3.22.89.91,3.37a.81.81,0,0,0,1,.54A.77.77,0,0,0,25.3,21c-.31-1.09-.61-2.19-.89-3.29v-.05c-.07-.28-.1-.38-.25-.89a7.81,7.81,0,0,0-.88-2.09,2.55,2.55,0,0,0-2.19-1.18Zm9.28,3.77c.09.37.27,1.05.89,3.3a2.48,2.48,0,0,1,.07.9,2.54,2.54,0,0,1-.27.86,2.27,2.27,0,0,1-.58.69,2.17,2.17,0,0,1-1.79.45L25,26.8a1.5,1.5,0,0,1-1,1.85,19.34,19.34,0,0,1-5.27.59,19.12,19.12,0,0,1-5.2-.59,1.56,1.56,0,0,1-1-1.92l.9-3.31a2.26,2.26,0,0,1-1,0,2.21,2.21,0,0,1-.79-.41,2.42,2.42,0,0,1-.58-.69,2.54,2.54,0,0,1-.27-.86,2.48,2.48,0,0,1,.07-.9c.62-2.25.8-2.93.89-3.3h0c.08-.3.11-.42.27-1a9.26,9.26,0,0,1,1.09-2.54,4,4,0,0,1,3.35-1.8h4.57a4,4,0,0,1,3.35,1.8,9.26,9.26,0,0,1,1.09,2.54c.15.51.19.65.26.92v0Z"/><path class="cls-1" d="M15,30.4V33a1.17,1.17,0,0,0,.28.76,1.12,1.12,0,0,0,1.94-.45l.69-2.6A28.73,28.73,0,0,1,15,30.4Zm5.37.3.69,2.61a1.16,1.16,0,0,0,1.24.84,1.15,1.15,0,0,0,.7-.39,1.17,1.17,0,0,0,.28-.76V30.39A28.73,28.73,0,0,1,20.4,30.7Z"/><rect class="cls-2" width="37.59" height="37.59"/></g></g></svg>