<svg xmlns="http://www.w3.org/2000/svg" viewBox="0 0 31.46 31.46"><defs><style>.cls-1{fill:#ce0033;}.cls-2{fill:none;}</style></defs><g id="Calque_2" data-name="Calque 2"><g id="Calque_1-2" data-name="Calque 1"><path class="cls-1" d="M15.72,2.57,2.81,9.44s.09,1.4.62,1.63a2.19,2.19,0,0,0,2-.44V24.94H7.09V9.6a3,3,0,0,1,.66-.25,31.09,31.09,0,0,1,7.75-.94,31.14,31.14,0,0,1,7.75.94,3.64,3.64,0,0,1,1,.44V24.94h1.59V10.79a2.25,2.25,0,0,0,1.75.31c.62-.2,1.09-1.66,1.09-1.66Zm1.46,7.84a1.53,1.53,0,0,0-1.12.47A1.6,1.6,0,0,0,15.59,12a1.52,1.52,0,0,0,.47,1.1,1.57,1.57,0,0,0,1.12.47,1.54,1.54,0,0,0,1.1-.47,1.48,1.48,0,0,0,.47-1.1,1.56,1.56,0,0,0-.47-1.12A1.5,1.5,0,0,0,17.18,10.41Zm-4.4,2.28a.51.51,0,0,0-.28.25l-2.32,4a.41.41,0,0,0,.16.63l.75.43c.27.16.45.11.59-.15l2.35-4c.15-.27.11-.46-.16-.6l-.75-.47A.44.44,0,0,0,12.78,12.69Zm2.84,1.06a1.73,1.73,0,0,0-1.31.91l-2.13,3.69a1.4,1.4,0,0,0-.18.84l.06,4.66-1.59,3.47a1.51,1.51,0,0,0-.13.34,1,1,0,0,0,.19.81,1,1,0,0,0,.69.41.92.92,0,0,0,1.06-.53l1.78-3.78a1.12,1.12,0,0,0,.09-.44l0-2.91,1.81,2.44L16.47,28a.89.89,0,0,0,.84.82,1,1,0,0,0,.87-.29,1,1,0,0,0,.35-.9l-.63-4.85a2.07,2.07,0,0,0-.5-.87l-1.59-2.22,1.56-2.72.75,1a.57.57,0,0,0,.28.22l1.66.81v9.1a.25.25,0,0,0,.5,0V19a.65.65,0,0,0,.34-.21.89.89,0,0,0,.25-.6.75.75,0,0,0-.56-.78l-1.34-.75-1.91-2.31a1.81,1.81,0,0,0-1.12-.6A2.41,2.41,0,0,0,15.62,13.75Z"/><rect class="cls-2" width="31.46" height="31.46"/></g></g></svg>