<svg xmlns="http://www.w3.org/2000/svg" viewBox="0 0 26.73 26.73"><defs><style>.cls-1{fill:#ce0033;}.cls-2{fill:none;}</style></defs><g id="Calque_2" data-name="Calque 2"><g id="Calque_1-2" data-name="Calque 1"><path class="cls-1" d="M10.13,16.7c-2.92,0-8.77,1.49-8.77,4.44v2.22H18.9V21.14C18.9,18.19,13.06,16.7,10.13,16.7ZM24.5,7.63c0-.12,0-.24,0-.38a1.5,1.5,0,0,0,0-.37l.82-.65a.2.2,0,0,0,0-.24l-.77-1.35a.2.2,0,0,0-.23-.09l-.94.39a3.25,3.25,0,0,0-.65-.38l-.14-1a.19.19,0,0,0-.07-.12.21.21,0,0,0-.13-.05H20.88a.19.19,0,0,0-.19.17l-.14,1a3.81,3.81,0,0,0-.65.38L19,4.55a.18.18,0,0,0-.23.09L18,6a.19.19,0,0,0,0,.24l.82.65a1.89,1.89,0,0,0,0,.75L18,8.28a.2.2,0,0,0,0,.24l.77,1.34A.18.18,0,0,0,19,10l.95-.39a2.84,2.84,0,0,0,.65.38l.14,1a.18.18,0,0,0,.19.16h1.53A.18.18,0,0,0,22.6,11l.14-1a3.25,3.25,0,0,0,.65-.38l.95.39a.17.17,0,0,0,.23-.09l.77-1.34a.19.19,0,0,0,0-.24Zm-2.86,1a1.33,1.33,0,0,1-1-.4,1.39,1.39,0,0,1,0-2,1.34,1.34,0,0,1,1.93,0,1.39,1.39,0,0,1,0,2A1.34,1.34,0,0,1,21.64,8.64ZM22.11,13l-.55-1a.14.14,0,0,0-.17-.06l-.68.27a1.61,1.61,0,0,0-.46-.26l-.1-.74a.16.16,0,0,0-.06-.08.14.14,0,0,0-.09,0H18.9a.14.14,0,0,0-.13.12l-.1.74a2.35,2.35,0,0,0-.46.26L17.53,12a.12.12,0,0,0-.16.06l-.55,1a.15.15,0,0,0,0,.18l.59.45a1.24,1.24,0,0,0,0,.27,1.18,1.18,0,0,0,0,.27l-.59.45a.15.15,0,0,0,0,.18l.55,1a.12.12,0,0,0,.16.06l.68-.27a1.93,1.93,0,0,0,.46.26l.1.74a.14.14,0,0,0,.13.12H20a.12.12,0,0,0,.13-.12l.1-.74a1.89,1.89,0,0,0,.46-.26l.68.27a.13.13,0,0,0,.17-.06l.54-1a.13.13,0,0,0,0-.18l-.57-.45a2.45,2.45,0,0,0,0-.27,2.28,2.28,0,0,0,0-.27l.58-.45A.17.17,0,0,0,22.11,13Zm-2.66,1.83a.92.92,0,1,1,.91-.92A.91.91,0,0,1,19.45,14.84ZM5.46,10h9.36a.54.54,0,0,0,.53-.54v0a.54.54,0,0,0-.15-.38.57.57,0,0,0-.38-.16h-.3a4.45,4.45,0,0,0-2.19-3.83v1a.55.55,0,1,1-1.1,0V4.63A4.07,4.07,0,0,0,9,4.63V6.14a.55.55,0,1,1-1.1,0v-1A4.45,4.45,0,0,0,5.75,8.92H5.46a.45.45,0,0,0-.2,0,.57.57,0,0,0-.18.12A.54.54,0,0,0,5,9.26a.45.45,0,0,0,0,.2v0A.53.53,0,0,0,5.46,10Zm4.67,4.45a4.42,4.42,0,0,0,4.24-3.34H5.9A4.42,4.42,0,0,0,10.13,14.48Z"/><rect class="cls-2" width="26.73" height="26.73"/></g></g></svg>