<svg xmlns="http://www.w3.org/2000/svg" viewBox="0 0 24 20"><defs><style>.cls-1{fill:#ce0033;}</style></defs><g id="Calque_2" data-name="Calque 2"><g id="Calque_1-2" data-name="Calque 1"><path class="cls-1" d="M8.77,13.33C5.84,13.33,0,14.82,0,17.78V20H17.54V17.78C17.54,14.82,11.7,13.33,8.77,13.33ZM23.13,4.27c0-.13,0-.25,0-.38a2.34,2.34,0,0,0,0-.38l.81-.64a.19.19,0,0,0,0-.25l-.76-1.34A.21.21,0,0,0,23,1.19L22,1.58a2.58,2.58,0,0,0-.64-.38l-.15-1a.17.17,0,0,0-.06-.12.24.24,0,0,0-.13,0H19.51a.18.18,0,0,0-.18.17l-.15,1a2.92,2.92,0,0,0-.64.38l-1-.39a.19.19,0,0,0-.23.09l-.76,1.34a.19.19,0,0,0,0,.25l.81.64a2.42,2.42,0,0,0,0,.76l-.81.64a.19.19,0,0,0,0,.25l.76,1.34a.21.21,0,0,0,.23.09l1-.39a2.58,2.58,0,0,0,.64.38l.15,1a.18.18,0,0,0,.18.17h1.54a.18.18,0,0,0,.18-.17l.15-1A3.38,3.38,0,0,0,22,6.2l1,.39a.19.19,0,0,0,.23-.09L24,5.16a.19.19,0,0,0,0-.25Zm-2.85,1a1.38,1.38,0,1,1,1-.41A1.38,1.38,0,0,1,20.28,5.28Zm.46,4.36-.55-1A.13.13,0,0,0,20,8.61l-.68.28a2.13,2.13,0,0,0-.46-.27l-.1-.73a.16.16,0,0,0-.06-.08l-.09,0h-1.1a.12.12,0,0,0-.13.12l-.1.73a2.32,2.32,0,0,0-.46.27l-.68-.28a.14.14,0,0,0-.17.07l-.54,1a.12.12,0,0,0,0,.17l.58.46a2.45,2.45,0,0,0,0,.27,2.28,2.28,0,0,0,0,.26l-.58.46a.13.13,0,0,0,0,.18l.54,1a.14.14,0,0,0,.17.07l.68-.28a1.92,1.92,0,0,0,.46.27l.1.73a.12.12,0,0,0,.13.12h1.1a.12.12,0,0,0,.13-.12l.1-.73a3.07,3.07,0,0,0,.46-.27l.68.28a.13.13,0,0,0,.16-.07l.55-1a.15.15,0,0,0,0-.18l-.57-.46a2.46,2.46,0,0,0,0-.26,2.28,2.28,0,0,0,0-.27l.58-.46A.18.18,0,0,0,20.74,9.64Zm-2.65,1.84a.93.93,0,0,1,0-1.85.94.94,0,0,1,.91.93A.92.92,0,0,1,18.09,11.48ZM4.1,6.67h9.35A.55.55,0,0,0,14,6.12v0a.55.55,0,0,0-.16-.38.51.51,0,0,0-.38-.16h-.3A4.44,4.44,0,0,0,11,1.72V2.78a.55.55,0,1,1-1.09,0V1.27a4.43,4.43,0,0,0-1.1-.16,4.43,4.43,0,0,0-1.1.16V2.78a.55.55,0,1,1-1.09,0V1.72a4.45,4.45,0,0,0-2.2,3.84H4.1a.52.52,0,0,0-.21,0,.38.38,0,0,0-.17.12.66.66,0,0,0-.12.17.78.78,0,0,0,0,.21v0A.54.54,0,0,0,4.1,6.67Zm4.67,4.44A4.39,4.39,0,0,0,13,7.78H4.54A4.39,4.39,0,0,0,8.77,11.11Z"/></g></g></svg>