<svg xmlns="http://www.w3.org/2000/svg" viewBox="0 0 31.59 31.59"><defs><style>.cls-1{fill:#fff;}.cls-2{fill:none;}</style></defs><g id="Calque_2" data-name="Calque 2"><g id="Calque_1-2" data-name="Calque 1"><g id="Calque_2-2" data-name="Calque 2"><g id="Calque_1-2-2" data-name="Calque 1-2"><path class="cls-1" d="M13.06,8.38a2.64,2.64,0,0,0,2.61-2.66,2.61,2.61,0,1,0-5.21-.32v.32a2.64,2.64,0,0,0,2.6,2.66Z"/><path class="cls-1" d="M23.66,20.39a1.38,1.38,0,0,0-.45-.77,1.29,1.29,0,0,0-.82-.3H17l-.56-4h5.94V12.65H16.08l-.22-1.52a1.29,1.29,0,0,0-.43-.82,1.28,1.28,0,0,0-.86-.33h-1.3a1.3,1.3,0,0,0-.54.13,1.22,1.22,0,0,0-.44.34,1.47,1.47,0,0,0-.27.49,1.82,1.82,0,0,0,0,.57l1.15,8.19A2.73,2.73,0,0,0,14,21.33a2.68,2.68,0,0,0,1.7.66h5.62l1.09,5.59a1.32,1.32,0,0,0,1.28,1.07h3.91V26H24.76Z"/><path class="cls-1" d="M17.63,20.91A5.75,5.75,0,0,1,10,23.71a5.87,5.87,0,0,1-1.73-1.23,6.11,6.11,0,0,1-1.72-4.24,6.31,6.31,0,0,1,1-3.35,5.88,5.88,0,0,1,2.67-2.21L9.85,10a8.7,8.7,0,0,0,2.56,16.93,8.28,8.28,0,0,0,4.15-1.12,8.57,8.57,0,0,0,3.07-3L19.28,21Z"/></g></g><rect class="cls-2" width="31.59" height="31.59"/></g></g></svg>