<?xml version="1.0" encoding="utf-8"?>
<!-- Generator: Adobe Illustrator 25.0.0, SVG Export Plug-In . SVG Version: 6.00 Build 0)  -->
<svg version="1.1" id="Calque_1" xmlns="http://www.w3.org/2000/svg" xmlns:xlink="http://www.w3.org/1999/xlink" x="0px" y="0px"
	 viewBox="0 0 26.7 26.7" style="enable-background:new 0 0 26.7 26.7;" xml:space="preserve">
<style type="text/css">
	.st0{fill:#FFFFFF;}
	.st1{fill:none;}
</style>
<g id="Calque_2_1_">
	<g id="Calque_1-2">
		<path class="st0" d="M10.8,16c-2.3,0-7,1.2-7,3.5v1.8h13.9v-1.8C17.8,17.2,13.1,16,10.8,16z M22.2,8.8c0-0.1,0-0.2,0-0.3
			c0-0.1,0-0.2,0-0.3l0.7-0.5c0-0.1,0-0.1,0-0.2l-0.6-1.1c0-0.1-0.1-0.1-0.2-0.1l-0.7,0.3c-0.2-0.1-0.3-0.2-0.5-0.3l-0.1-0.8
			c0,0,0-0.1-0.1-0.1c0,0-0.1,0-0.1,0h-1.2c-0.1,0-0.1,0.1-0.2,0.1l-0.1,0.8c-0.2,0.1-0.4,0.2-0.5,0.3l-0.7-0.3
			c-0.1,0-0.2,0-0.2,0.1l-0.6,1.1c0,0.1,0,0.1,0,0.2l0.7,0.5c0,0.2,0,0.4,0,0.6l-0.7,0.5c0,0.1,0,0.1,0,0.2l0.6,1.1
			c0,0.1,0.1,0.1,0.2,0.1c0,0,0,0,0,0l0.8-0.3c0.2,0.1,0.3,0.2,0.5,0.3l0.1,0.8c0,0.1,0.1,0.1,0.2,0.1h1.2c0.1,0,0.1-0.1,0.1-0.1
			l0.1-0.8c0.2-0.1,0.4-0.2,0.5-0.3l0.8,0.3c0.1,0,0.1,0,0.2-0.1c0,0,0,0,0,0l0.6-1.1c0-0.1,0-0.1,0-0.2L22.2,8.8z M19.9,9.6
			c-0.3,0-0.6-0.1-0.8-0.3c-0.4-0.4-0.5-1.1,0-1.6c0,0,0,0,0,0c0.4-0.4,1.1-0.4,1.5,0c0,0,0,0,0,0c0.4,0.4,0.5,1.1,0,1.6
			c0,0,0,0,0,0C20.5,9.5,20.2,9.6,19.9,9.6L19.9,9.6z M20.3,13.1l-0.4-0.8c0,0-0.1-0.1-0.1,0l-0.5,0.2c-0.1-0.1-0.2-0.2-0.4-0.2
			l-0.1-0.6c0,0,0,0,0-0.1c0,0,0,0-0.1,0h-0.9c-0.1,0-0.1,0-0.1,0.1l-0.1,0.6c-0.1,0.1-0.3,0.1-0.4,0.2l-0.5-0.2c0,0-0.1,0-0.1,0
			c0,0,0,0,0,0l-0.4,0.8c0,0,0,0.1,0,0.1l0.5,0.4c0,0.1,0,0.1,0,0.2c0,0.1,0,0.1,0,0.2l-0.5,0.4c0,0,0,0.1,0,0.1l0.4,0.8
			c0,0,0.1,0.1,0.1,0c0,0,0,0,0,0l0.5-0.2c0.1,0.1,0.2,0.2,0.4,0.2l0.1,0.6c0,0.1,0.1,0.1,0.1,0.1h0.9c0.1,0,0.1,0,0.1-0.1
			c0,0,0,0,0,0l0.1-0.6c0.1-0.1,0.3-0.1,0.4-0.2l0.5,0.2c0.1,0,0.1,0,0.1,0l0.4-0.8c0,0,0-0.1,0-0.1l-0.5-0.4c0-0.1,0-0.1,0-0.2
			c0-0.1,0-0.1,0-0.2l0.5-0.4C20.4,13.2,20.4,13.1,20.3,13.1C20.3,13.1,20.3,13.1,20.3,13.1z M18.2,14.5c-0.4,0-0.7-0.3-0.7-0.7
			c0-0.4,0.3-0.7,0.7-0.7c0.4,0,0.7,0.3,0.7,0.7c0,0,0,0,0,0C18.9,14.2,18.6,14.5,18.2,14.5C18.2,14.5,18.2,14.5,18.2,14.5
			L18.2,14.5z M7.1,10.7h7.4c0.2,0,0.4-0.2,0.4-0.4l0,0c0-0.1,0-0.2-0.1-0.3c-0.1-0.1-0.2-0.1-0.3-0.1h-0.2c0-1.3-0.7-2.4-1.7-3v0.8
			c0,0.2-0.2,0.4-0.4,0.4c-0.2,0-0.4-0.2-0.4-0.4V6.4c-0.6-0.2-1.2-0.2-1.8,0v1.2c0,0.2-0.2,0.4-0.4,0.4C9.2,8.1,9,7.9,9,7.6
			c0,0,0,0,0,0V6.8C8,7.5,7.3,8.6,7.3,9.8H7.1c-0.1,0-0.1,0-0.2,0c-0.1,0-0.1,0.1-0.1,0.1c0,0.1-0.1,0.1-0.1,0.2c0,0.1,0,0.1,0,0.2
			l0,0C6.7,10.5,6.9,10.7,7.1,10.7z M10.8,14.2c1.6,0,3-1.1,3.4-2.7H7.4C7.8,13.1,9.2,14.2,10.8,14.2L10.8,14.2z"/>
		<rect x="2.7" y="2.7" class="st1" width="21.3" height="21.3"/>
	</g>
</g>
</svg>
