<svg xmlns="http://www.w3.org/2000/svg" viewBox="0 0 41.82 41.82"><defs><style>.cls-1{fill:#fff;}.cls-1:hover{fill:#ce0033;}.cls-2{fill:none;}</style></defs><g id="Calque_2" data-name="Calque 2"><g id="Calque_1-2" data-name="Calque 1"><path class="cls-1" d="M25.4,20.91a3.5,3.5,0,0,1-.59,2,3.58,3.58,0,0,1-1.58,1.3,3.65,3.65,0,0,1-2,.2,3.56,3.56,0,0,1-2.77-2.77A3.52,3.52,0,0,1,19.92,18a3.5,3.5,0,0,1,1.95-.6h0A3.52,3.52,0,0,1,25.4,20.91Zm-9.06-3.49a3.49,3.49,0,0,0-3.53,3.47,3.43,3.43,0,0,0,3.5,3.46A3.53,3.53,0,0,0,17.93,24V22.44a2,2,0,0,1-1.56.73,2.17,2.17,0,0,1-2.22-2.29,2.2,2.2,0,0,1,2.16-2.28,2.14,2.14,0,0,1,1.62.75V17.83A3.25,3.25,0,0,0,16.34,17.42ZM10.5,20.11c-.77-.28-1-.47-1-.83s.4-.74,1-.74a1.32,1.32,0,0,1,1,.54l.68-.88a2.92,2.92,0,0,0-1.95-.74,1.94,1.94,0,0,0-2.06,1.9c0,.91.41,1.38,1.63,1.82a5.7,5.7,0,0,1,.89.37.83.83,0,0,1,.29.3.87.87,0,0,1,.1.39.94.94,0,0,1-1,.93,1.5,1.5,0,0,1-1.4-.88l-.84.8a2.58,2.58,0,0,0,2.3,1.27,2.14,2.14,0,0,0,2.28-2.18C12.41,21.13,12,20.65,10.5,20.11ZM41.82,18a.51.51,0,0,1-.5.5.44.44,0,0,1-.36-.14.45.45,0,0,1-.11-.17.43.43,0,0,1,0-.19h0a.44.44,0,0,1,0-.2.45.45,0,0,1,.11-.17.43.43,0,0,1,.17-.12.45.45,0,0,1,.2,0,.51.51,0,0,1,.2,0,.48.48,0,0,1,.16.12.45.45,0,0,1,.11.17A.76.76,0,0,1,41.82,18Zm-.11,0a.29.29,0,0,0,0-.16.44.44,0,0,0-.22-.22.29.29,0,0,0-.16,0,.32.32,0,0,0-.16,0,.51.51,0,0,0-.13.09.43.43,0,0,0,.29.71l.16,0a.44.44,0,0,0,.22-.22A.3.3,0,0,0,41.71,18ZM6.05,24.2H7.34V17.57H6.05ZM28.18,22l-1.77-4.45H25l2.81,6.8h.7l2.86-6.8H30ZM32,24.2h3.67V23.08H33.25V21.29h2.28V20.16H33.25V18.69h2.37V17.57H32ZM41.38,18l.19.24H41.4L41.24,18v.23H41.1v-.58h.19c.14,0,.22.06.22.18A.16.16,0,0,1,41.38,18Zm0-.16c0-.05,0-.08-.11-.08h0v.16h0C41.33,17.92,41.37,17.89,41.37,17.84Zm-2.14,3.57,2.09,2.79H39.73l-1.79-2.67h-.17V24.2H36.48V17.57h1.91c1.49,0,2.35.72,2.35,2A1.77,1.77,0,0,1,39.23,21.41Zm.18-1.81c0-.65-.44-1-1.24-1h-.4v2h.38C39,20.62,39.41,20.26,39.41,19.6Zm-34,1.29a3.27,3.27,0,0,1-.32,1.41,3.21,3.21,0,0,1-.88,1.13,3.43,3.43,0,0,1-2.36.77H0V17.57H1.9A3.29,3.29,0,0,1,5.45,20.89Zm-1.33,0a2.26,2.26,0,0,0-.71-1.65,2.4,2.4,0,0,0-1.77-.54H1.29v4.39h.35a2.5,2.5,0,0,0,1.77-.53A2.29,2.29,0,0,0,4.12,20.88Z"/><rect class="cls-2" width="41.82" height="41.82"/></g></g></svg>