<svg width="42" height="8" viewBox="0 0 42 8" fill="none" xmlns="http://www.w3.org/2000/svg">
<path d="M25.4033 3.99326C25.4033 4.69029 25.1967 5.37168 24.8095 5.95128C24.4223 6.53089 23.872 6.9827 23.2281 7.2496C22.5842 7.5165 21.8756 7.58651 21.1919 7.45078C20.5082 7.31505 19.8801 6.97967 19.387 6.48704C18.8939 5.99441 18.5579 5.36664 18.4215 4.68309C18.2851 3.99953 18.3544 3.29088 18.6207 2.64671C18.8869 2.00254 19.3382 1.45177 19.9174 1.06402C20.4967 0.676273 21.1778 0.468951 21.8749 0.468262H21.8783C23.8264 0.468262 25.4033 2.04693 25.4033 3.99326ZM16.3425 0.506595C14.384 0.506595 12.8141 2.04693 12.8141 3.97409C12.8141 5.92217 14.3439 7.43114 16.3112 7.43114C16.867 7.43114 17.3445 7.32136 17.9317 7.04605V5.52488C17.4159 6.0424 16.9576 6.24975 16.3722 6.24975C15.0706 6.24975 14.147 5.30533 14.147 3.96364C14.147 2.69164 15.1002 1.68798 16.3129 1.68798C16.9298 1.68798 17.3967 1.90753 17.9334 2.43376V0.91259C17.4457 0.645686 16.8985 0.506051 16.3425 0.506595ZM10.5018 3.1987C9.72642 2.91119 9.49816 2.72301 9.49816 2.36406C9.49816 1.94761 9.90415 1.62874 10.4617 1.62874C10.8486 1.62874 11.1674 1.78731 11.5037 2.16542L12.1798 1.28025C11.6443 0.802935 10.9509 0.540969 10.2335 0.544929C9.0608 0.544929 8.16692 1.35866 8.16692 2.44247C8.16692 3.35552 8.58337 3.8225 9.79786 4.25986C10.3049 4.43933 10.5611 4.55782 10.6917 4.63797C10.8104 4.70888 10.9084 4.80951 10.9763 4.9299C11.0441 5.0503 11.0794 5.18631 11.0786 5.3245C11.0786 5.86118 10.6517 6.25846 10.0749 6.25846C9.45808 6.25846 8.96148 5.95005 8.66526 5.37503L7.83062 6.17831C8.42654 7.05302 9.14095 7.43985 10.1254 7.43985C11.4689 7.43985 12.4098 6.54597 12.4098 5.26352C12.4063 4.21281 11.9707 3.73712 10.5018 3.1987ZM41.8173 1.03108C41.8178 1.16479 41.7652 1.29324 41.6712 1.38829C41.5771 1.48333 41.4492 1.53721 41.3155 1.53813C41.2489 1.53836 41.1828 1.52541 41.1212 1.50001C41.0596 1.4746 41.0036 1.43726 40.9565 1.39013C40.9093 1.343 40.872 1.28701 40.8466 1.22539C40.8212 1.16377 40.8082 1.09773 40.8085 1.03108V1.02585C40.8048 0.9571 40.8152 0.888326 40.8391 0.823748C40.8629 0.75917 40.8997 0.70015 40.9472 0.65031C40.9947 0.600471 41.0519 0.560862 41.1153 0.533915C41.1786 0.506969 41.2468 0.493255 41.3157 0.493612C41.3845 0.493968 41.4526 0.50839 41.5156 0.535991C41.5787 0.563592 41.6355 0.60379 41.6824 0.654119C41.7294 0.704448 41.7656 0.763847 41.7888 0.828668C41.812 0.89349 41.8217 0.962369 41.8173 1.03108ZM41.7145 1.03282C41.7155 0.979043 41.7058 0.925613 41.686 0.875579C41.6663 0.825545 41.6369 0.779888 41.5995 0.741216C41.5622 0.702544 41.5175 0.671614 41.4682 0.650192C41.4189 0.628771 41.3658 0.617279 41.312 0.616371C41.258 0.61682 41.2047 0.627988 41.155 0.649227C41.1054 0.670466 41.0605 0.701354 41.0229 0.740096C40.9852 0.778838 40.9557 0.824665 40.936 0.874915C40.9162 0.925165 40.9066 0.978837 40.9078 1.03282C40.9078 1.26282 41.089 1.44927 41.312 1.44927C41.3658 1.44836 41.4189 1.43687 41.4682 1.41545C41.5175 1.39402 41.5622 1.36309 41.5995 1.32442C41.6369 1.28575 41.6663 1.24009 41.686 1.19006C41.7058 1.14002 41.7155 1.08659 41.7145 1.03282ZM6.04808 7.28129H7.34099V0.654704H6.04808V7.28129ZM28.1808 5.10669L26.414 0.656447H25.0026L27.8149 7.45205H28.5102L31.373 0.656447H29.9721L28.1808 5.10669ZM31.955 7.28129H35.6211V6.15914H33.2479V4.36963H35.534V3.24749H33.2479V1.77685H35.6211V0.654704H31.955V7.28129ZM41.38 1.08335L41.5717 1.32381H41.4026L41.2388 1.09729V1.32381H41.0994V0.741827H41.2859C41.427 0.741827 41.5054 0.804557 41.5054 0.921302C41.5072 1.00146 41.4619 1.0607 41.38 1.08335ZM41.3695 0.923044C41.3695 0.872512 41.3329 0.848117 41.265 0.848117H41.2406V0.999711H41.265C41.3329 0.999711 41.3695 0.975318 41.3695 0.923044ZM39.2298 4.48986L41.3155 7.28129H39.7264L37.9369 4.61881H37.7679V7.28129H36.4767V0.654704H38.3934C39.8832 0.654704 40.7388 1.37086 40.7388 2.61149C40.7388 3.62734 40.2021 4.29296 39.2298 4.48986ZM39.4093 2.68119C39.4093 2.03648 38.9719 1.70018 38.1669 1.70018H37.7696V3.7075H38.1477C38.9719 3.70576 39.4093 3.34681 39.4093 2.68119ZM5.45391 3.97409C5.45146 4.46021 5.34255 4.93989 5.13483 5.3794C4.92712 5.81891 4.62564 6.20759 4.25161 6.51809C3.61561 7.04605 2.89074 7.28303 1.88709 7.28303H0V0.656447H1.89754C3.99198 0.656447 5.45391 2.01731 5.45391 3.97409ZM4.12266 3.96364C4.12266 3.32938 3.85433 2.71255 3.40651 2.31353C2.97961 1.9267 2.47255 1.77685 1.63791 1.77685H1.29116V6.15914H1.63791C2.47255 6.15914 3.00052 5.99883 3.40651 5.63292C3.85258 5.23564 4.12266 4.59964 4.12266 3.96364Z" fill="#CE0033"/>
</svg>
