<?xml version="1.0" encoding="UTF-8" standalone="no"?>
<!-- Created with Inkscape (http://www.inkscape.org/) -->

<svg
   xmlns:dc="http://purl.org/dc/elements/1.1/"
   xmlns:cc="http://creativecommons.org/ns#"
   xmlns:rdf="http://www.w3.org/1999/02/22-rdf-syntax-ns#"
   xmlns:svg="http://www.w3.org/2000/svg"
   xmlns="http://www.w3.org/2000/svg"
   xmlns:sodipodi="http://sodipodi.sourceforge.net/DTD/sodipodi-0.dtd"
   xmlns:inkscape="http://www.inkscape.org/namespaces/inkscape"
   version="1.1"
   id="svg1430"
   width="202.04318"
   height="65.108047"
   viewBox="0 0 202.04318 65.108047"
   sodipodi:docname="logoWhite.svg"
   inkscape:version="0.92.5 (2060ec1f9f, 2020-04-08)">
  <metadata
     id="metadata1436">
    <rdf:RDF>
      <cc:Work
         rdf:about="">
        <dc:format>image/svg+xml</dc:format>
        <dc:type
           rdf:resource="http://purl.org/dc/dcmitype/StillImage" />
        <dc:title></dc:title>
      </cc:Work>
    </rdf:RDF>
  </metadata>
  <defs
     id="defs1434" />
  <sodipodi:namedview
     pagecolor="#ffffff"
     bordercolor="#666666"
     borderopacity="1"
     objecttolerance="10"
     gridtolerance="10"
     guidetolerance="10"
     inkscape:pageopacity="0"
     inkscape:pageshadow="2"
     inkscape:window-width="1848"
     inkscape:window-height="1016"
     id="namedview1432"
     showgrid="false"
     fit-margin-top="0"
     fit-margin-left="0"
     fit-margin-right="0"
     fit-margin-bottom="0"
     inkscape:zoom="1"
     inkscape:cx="100.5"
     inkscape:cy="33.902814"
     inkscape:window-x="72"
     inkscape:window-y="27"
     inkscape:window-maximized="1"
     inkscape:current-layer="svg1430" />
  <g
     id="g1440"
     transform="translate(0,-8.7947676)"
     style="fill:#ffffff;fill-opacity:1">
    <path
       style="fill:#ffffff;fill-opacity:1"
       d="m 61,71.947587 c -1.100526,-0.749669 -0.567894,-0.873105 2,-0.463494 6.405762,1.021799 8.44004,-3.546085 2.140333,-4.806026 -3.923489,-0.784698 -5.754722,-3.920821 -3.566922,-6.108621 1.713298,-1.713298 5.144819,-2.0342 7.280576,-0.680849 0.875345,0.554674 -0.0084,0.81439 -2.5,0.734687 -3.222191,-0.103074 -3.903959,0.227154 -4.158821,2.014409 -0.248351,1.741597 0.398913,2.304125 3.493221,3.035911 4.055286,0.959053 5.378853,3.335524 3.271744,5.874435 C 67.570575,73.222352 63.193872,73.442035 61,71.947587 Z M 73,66 v -7 l 4.75,0.141905 4.75,0.141906 -4,0.608094 c -3.159693,0.480348 -4.06713,1.080768 -4.319551,2.858095 -0.28098,1.978415 0.141485,2.26589 3.5,2.381641 L 81.5,65.263282 78,65.881641 C 75.098229,66.394309 74.5,66.927306 74.5,69 c 0,2.148651 0.562159,2.585461 4,3.108095 l 4,0.608094 -4.75,0.141906 L 73,73 Z m 12.168108,0.25 c -0.09246,-3.9875 0.0028,-7.25 0.211747,-7.25 0.20892,0 2.34642,2.5875 4.75,5.75 L 94.5,70.5 l 0.581892,-6 0.581893,-6 0.168107,7.25 c 0.09246,3.9875 -0.04231,7.25 -0.299497,7.25 -0.257183,0 -2.394683,-2.558465 -4.75,-5.685477 L 86.5,61.629046 85.918108,67.564523 85.336215,73.5 Z M 100,66 v -7 l 4.25,0.168103 4.25,0.168103 -3.75,0.392262 C 101.57732,60.060341 101,60.487024 101,62.5 c 0,2.012976 0.57732,2.439659 3.75,2.771532 l 3.75,0.392262 -3.75,0.168103 c -3.44476,0.15442 -3.75,0.407378 -3.75,3.107738 0,2.660509 0.35607,2.976881 3.75,3.331897 l 3.75,0.392262 -4.25,0.168103 L 100,73 Z m 13.25,5.477754 c -2.88591,-2.040867 -3.13224,-8.369365 -0.42126,-10.822766 2.03554,-1.842142 5.87904,-2.143682 8.17126,-0.641073 1.0647,0.697938 0.54897,0.800744 -1.77714,0.35426 -5.96242,-1.144457 -9.21963,4.336022 -5.62617,9.466411 2.09901,2.996745 6.7604,2.668924 7.21273,-0.507249 0.2279,-1.600272 -0.29901,-2.288886 -2,-2.613818 -2.00908,-0.383783 -1.94354,-0.458865 0.50394,-0.577337 2.59419,-0.125573 2.78895,0.116999 2.5,3.113818 -0.26974,2.797556 -0.731,3.2896 -3.31336,3.534458 -1.65,0.156452 -4.0125,-0.431565 -5.25,-1.306704 z M 125.49552,71.5 c 1.02948,-3.694048 4.99793,-12.465693 5.64749,-12.482934 0.35366,-0.0094 0.87468,0.545434 1.15783,1.232934 0.28316,0.6875 1.67563,3.8375 3.09438,7 1.41876,3.1625 2.16556,5.75 1.65956,5.75 -0.506,0 -1.20565,-0.9 -1.55478,-2 -0.95546,-3.010392 -7.7582,-2.829046 -9.37812,0.25 -0.95716,1.819328 -1.07705,1.86718 -0.62636,0.25 z M 134,67.649223 c 0,-0.192927 -0.49384,-1.767393 -1.09741,-3.498813 -1.26367,-3.624962 -2.27236,-3.397059 -3.7521,0.847752 C 128.14178,67.891747 128.21035,68 131.05202,68 132.67341,68 134,67.84215 134,67.649223 Z M 140,66 c 0,-4 0.42857,-7 1,-7 0.56314,0 1,2.813212 1,6.439635 v 6.439634 l 3.75,0.392263 c 3.43565,0.35938 3.35182,0.406353 -1,0.560365 L 140,73 Z m -35,-9.881966 c 0,-0.55 0.45,-1.278115 1,-1.618034 0.55,-0.339919 1,-0.168034 1,0.381966 0,0.55 -0.45,1.278115 -1,1.618034 -0.55,0.339919 -1,0.168034 -1,-0.381966 z M 2.4545455,45.545455 C 0.92311171,44.014021 0,41.945567 0,40.045455 0,36.106405 2.2089911,36.066032 3.6856294,39.978093 5.9420807,45.956115 14.215631,46.21168 16.87028,40.385358 19.426727,34.774569 17.484898,31.441719 9.0355555,26.938267 4.820003,24.691401 2.8312991,22.954822 2.112516,20.892919 -1.0907407,11.704051 11.008629,5.1103348 17.02899,12.763984 c 1.852697,2.355323 1.894626,2.699258 0.429052,3.519435 -1.166574,0.652848 -2.280249,0.292785 -3.951965,-1.27771 C 9.5958863,11.332276 5.0258874,13.98269 6.3275583,19.16896 6.7631914,20.904661 8.6432816,22.504386 12.600774,24.506694 22.515666,29.523172 25.081853,38.118147 18.6,44.6 15.61437,47.58563 14.572906,48 10.054545,48 5.9248036,48 4.4245637,47.515473 2.4545455,45.545455 Z M 27,29 V 10 H 29.5 32 V 29 48 H 29.5 27 Z m 11,0 V 10 h 2.501043 c 1.883131,0 3.674329,1.52133 7.25,6.157687 2.611926,3.386727 5.423957,7.002235 6.248957,8.03446 1.41435,1.769611 1.842598,1.420278 7.5,-6.117959 4.912798,-6.546085 6.498301,-8.001932 8.75,-8.034461 L 73,10 V 29 48 H 70.5 68 V 32.396657 16.793314 l -5.623112,7.353343 c -3.092712,4.044339 -5.943353,7.706484 -6.334758,8.138101 -0.391406,0.431617 -3.308668,-2.605883 -6.482805,-6.75 C 46.385188,21.390641 43.385829,18 42.894083,18 42.402337,18 42,24.75 42,33 42,47.333333 41.91111,48 40,48 38.070175,48 38,47.333333 38,29 Z m 41,0 V 10 l 7.25,0.0037 c 8.662103,0.0045 12.537007,1.920297 15.18949,7.509992 4.42861,9.332636 -2.697211,19.473919 -13.68949,19.48257 L 83,37 v 5.5 c 0,4.833333 -0.242424,5.5 -2,5.5 -1.929825,0 -2,-0.666667 -2,-19 z m 16.691158,0.572661 C 98.955629,25.777487 98.797563,20.441914 95.312909,16.804719 93.09763,14.492466 91.780744,14 87.812909,14 H 83 v 9.627229 9.62723 l 5.191158,-0.498805 c 4.029174,-0.387153 5.707968,-1.099631 7.5,-3.182993 z M 107,29 V 10 h 2.5 2.5 v 17 17 h 7 c 6.33333,0 7,0.190476 7,2 0,1.859649 -0.66667,2 -9.5,2 H 107 Z m 27.74243,16.051611 c -6.51967,-4.134658 -9.07897,-9.425458 -8.55323,-17.682014 0.32814,-5.15336 0.94849,-6.982153 3.42006,-10.082406 8.3249,-10.4424522 23.31053,-10.4092754 31.79243,0.07039 4.11988,5.090253 4.85952,14.249933 1.65748,20.52644 C 159.81787,44.237497 153.28697,48 145.5,48 c -5.0455,0 -6.91744,-0.513053 -10.75757,-2.948389 z m 16.8565,-1.957045 C 157.6615,40.34128 160.5,35.790258 160.5,28.82333 160.5,19.496722 154.62981,13.5 145.5,13.5 c -5.78388,0 -9.12532,1.778161 -12.93821,6.885119 -3.04779,4.082184 -2.87521,12.974387 0.33928,17.481409 2.43862,3.419178 8.96128,7.089548 12.59893,7.089548 1.1,0 3.84452,-0.83768 6.09893,-1.86151 z M 143,34.5 c 0,-2 0.5,-2.5 2.5,-2.5 2,0 2.5,0.5 2.5,2.5 0,2 -0.5,2.5 -2.5,2.5 -2,0 -2.5,-0.5 -2.5,-2.5 z M 143,24 c 0,-2.533333 0.38889,-3 2.5,-3 2.11111,0 2.5,0.466667 2.5,3 0,2.533333 -0.38889,3 -2.5,3 -2.11111,0 -2.5,-0.466667 -2.5,-3 z m 27,4.933578 V 9.8671553 l 2.72563,0.3164227 c 2.24588,0.260727 4.57808,2.936169 13.25,15.200106 L 196.5,40.267367 196.77605,25.133684 197.05209,10 H 199.52605 202 v 19 19 h -2.78202 c -2.44383,0 -4.05456,-1.793074 -13.25,-14.75 L 175.5,18.5 175.22327,33.25 174.94653,48 H 172.47327 170 Z"
       id="path1454"
       inkscape:connector-curvature="0" />
    <path
       style="fill:#ffffff;fill-opacity:1"
       d="m 61,71.947587 c -1.100526,-0.749669 -0.567894,-0.873105 2,-0.463494 1.925,0.307061 4.128073,0.144173 4.895717,-0.361975 C 69.770774,69.885796 68.543157,67 66.142169,67 c -1.056331,0 -2.930358,-0.817652 -4.164506,-1.817004 -1.910473,-1.547007 -2.070301,-2.141384 -1.0756,-4 C 61.751933,59.595 62.998656,59 65.476167,59 c 1.873189,0 3.645456,0.387773 3.93837,0.861717 0.292913,0.473945 -1.143029,0.811445 -3.190983,0.75 C 63.185643,60.520571 62.5,60.851845 62.5,62.41078 c 0,1.29275 1.132054,2.291716 3.5,3.088527 3.737338,1.257609 4.923994,3.682422 2.960131,6.048732 C 67.570575,73.222352 63.193872,73.442035 61,71.947587 Z M 73,66 v -7 l 4.75,0.168103 c 4.351823,0.154012 4.43565,0.200985 1,0.560365 -3.171218,0.33172 -3.75,0.759022 -3.75,2.768539 0,1.931528 0.608276,2.451762 3.25,2.779597 l 3.25,0.403322 -3.25,0.160037 C 75.35668,65.982436 75,66.322619 75,68.939635 c 0,2.660509 0.356072,2.976881 3.75,3.331897 3.43565,0.35938 3.351823,0.406353 -1,0.560365 L 73,73 Z m 12.168108,0.25 c -0.09246,-3.9875 0.04231,-7.25 0.299497,-7.25 0.257183,0 2.394683,2.558465 4.75,5.685477 L 94.5,70.370954 95.081892,64.435477 95.663785,58.5 l 0.168107,7.25 c 0.09246,3.9875 -0.04231,7.25 -0.299497,7.25 -0.257183,0 -2.394683,-2.558465 -4.75,-5.685477 L 86.5,61.629046 85.918108,67.564523 85.336215,73.5 Z M 100,66 v -7 l 4.25,0.168103 4.25,0.168103 -3.75,0.392262 C 101.57732,60.060341 101,60.487024 101,62.5 c 0,2.012976 0.57732,2.439659 3.75,2.771532 l 3.75,0.392262 -3.75,0.168103 c -3.44476,0.15442 -3.75,0.407378 -3.75,3.107738 0,2.660509 0.35607,2.976881 3.75,3.331897 l 3.75,0.392262 -4.25,0.168103 L 100,73 Z m 12.69889,5.219768 c -2.2741,-2.512847 -2.20106,-8.455338 0.12985,-10.56478 2.0435,-1.849339 7.696,-2.232984 8.71068,-0.591208 0.44407,0.718519 -0.48272,0.849883 -2.85552,0.404743 -3.04656,-0.571539 -3.7381,-0.315442 -5.20867,1.928935 -2.1584,3.294139 -1.25178,7.291602 1.98859,8.76801 3.0562,1.392498 5.53618,0.467672 5.53618,-2.064532 0,-1.239422 -0.82852,-2.121415 -2.25,-2.395203 -1.88612,-0.363283 -1.79502,-0.455393 0.56336,-0.569551 2.59419,-0.125573 2.78895,0.116999 2.5,3.113818 -0.28253,2.930289 -0.66269,3.279365 -3.86447,3.548508 -2.48118,0.208569 -4.06299,-0.267101 -5.25,-1.57874 z m 12.29824,1.089249 C 124.99147,70.718169 130.3147,59 131.04303,59 c 0.40865,0 0.97466,0.5625 1.25781,1.25 0.28316,0.6875 1.67563,3.8375 3.09438,7 1.41876,3.1625 2.16556,5.75 1.65956,5.75 -0.506,0 -1.20565,-0.9 -1.55478,-2 -0.49301,-1.553346 -1.51303,-2 -4.56739,-2 C 128.17521,69 127,69.430618 127,70.440983 c 0,0.792541 -0.45,1.719098 -1,2.059017 -0.55,0.339919 -1.00129,0.253976 -1.00287,-0.190983 z M 134,67.61481 c 0,-0.211855 -0.64006,-1.899355 -1.42235,-3.75 L 131.1553,60.5 l -1.10768,2.894075 c -0.60922,1.591742 -1.34572,3.279242 -1.63666,3.75 C 128.12001,67.614834 129.25852,68 130.94098,68 132.62344,68 134,67.826664 134,67.61481 Z M 140,66 c 0,-4 0.42857,-7 1,-7 0.56314,0 1,2.813212 1,6.439635 v 6.439634 l 3.75,0.392263 c 3.43565,0.35938 3.35182,0.406353 -1,0.560365 L 140,73 Z m -35.03579,-9.835646 c 0.6588,-1.284606 1.47209,-2.061392 1.80729,-1.726191 0.3352,0.335201 -0.20383,1.386242 -1.19784,2.335647 -1.72775,1.650222 -1.75457,1.6234 -0.60945,-0.609456 z M 78,56.622445 c 0,-0.207656 0.7875,-0.995156 1.75,-1.75 C 81.336056,53.628574 81.371426,53.663944 80.127555,55.25 78.821186,56.915748 78,57.445479 78,56.622445 Z M 6.020563,47.916498 C 1.835471,46.191784 0,43.883488 0,40.345012 c 0,-4.270485 2.0128264,-4.333438 4,-0.125105 2.0694031,4.382475 6.301007,5.690491 9.853633,3.045822 C 20.324183,38.44888 18.7182,32.466331 9.6478091,27.598347 3.1007,24.084582 0.52576402,20.435667 1.4912609,16.039789 c 0.8137637,-3.705042 3.4472861,-5.99328 7.690033,-6.6817831 2.7521071,-0.4466055 4.0602491,-0.02564 6.6240281,2.1316371 3.721075,3.131078 3.954317,4.134482 1.166723,5.01923 -1.410899,0.447801 -2.57082,-0.02676 -3.812075,-1.559646 C 9.9539411,10.989949 4.8408779,14.772569 6.4681899,19.899775 6.7998207,20.944651 9.4776606,22.938977 12.418945,24.33161 19.013136,27.453812 22,31.377909 22,36.919056 22,44.63623 13.034049,50.806819 6.020563,47.916498 Z M 139.58542,47.801602 c -5.7917,-1.595107 -12.11421,-8.351666 -13.38331,-14.302089 -4.09593,-19.20453 18.22047,-32.0503675 32.79878,-18.87974 4.77432,4.313307 6.35382,8.799609 5.79894,16.470844 -0.33696,4.658421 -1.04599,6.645651 -3.41582,9.573644 -5.28831,6.533894 -13.83226,9.33137 -21.79859,7.137341 z m 13.7088,-5.470589 c 1.53682,-0.78546 3.67302,-2.868763 4.74709,-4.629562 4.40516,-7.221626 3.40437,-15.346932 -2.53228,-20.559382 -12.41985,-10.9047665 -30.50887,2.790697 -23.76819,17.995237 2.25572,5.088078 3.86279,6.596099 8.99968,8.444958 4.0241,1.448346 8.05848,1.046232 12.5537,-1.251251 z M 142,34.5 c 0,-2.111111 0.46667,-2.5 3,-2.5 2.53333,0 3,0.388889 3,2.5 0,2.111111 -0.46667,2.5 -3,2.5 -2.53333,0 -3,-0.388889 -3,-2.5 z m 0.66667,-8.166667 C 142.3,25.966667 142,24.616667 142,23.333333 142,21.407407 142.52381,21 145,21 c 2.66667,0 3,0.333333 3,3 0,2.47619 -0.40741,3 -2.33333,3 -1.28334,0 -2.63334,-0.3 -3,-0.666667 z M 27,29 V 10 H 29.5 32 V 29 48 H 29.5 27 Z m 11,0 V 10 l 2.75,0.02798 c 2.259643,0.02299 3.730714,1.376094 8.25,7.588399 3.025,4.158228 5.764566,7.727117 6.087925,7.930865 0.323359,0.203748 3.222414,-3.211032 6.442345,-7.588399 C 66.433118,11.293623 67.841043,10 70.192345,10 H 73 V 29 48 H 70.5 68 V 32.324262 16.648523 l -5.553123,7.425739 c -3.054218,4.084156 -5.93446,7.80848 -6.400538,8.276276 -0.466078,0.467795 -3.479672,-2.648037 -6.696877,-6.924072 L 43.5,17.651856 43.223954,32.825928 42.947908,48 H 40.473954 38 Z M 79,28.5 V 9 h 5.78811 c 11.079859,0 18.92102,6.711842 17.86044,15.288099 -0.91999,7.439353 -5.835077,11.870407 -14.089706,12.702161 L 83.5,37.5 83.19774,42.75 C 82.942523,47.182923 82.592347,48 80.94774,48 79.084009,48 79,47.158933 79,28.5 Z m 16.717004,1.042614 C 98.837371,25.914971 98.716897,21.005434 95.411106,17.076725 93.167357,14.410181 92.167477,14 87.911106,14 H 83 v 8.833333 c 0,4.858334 0.3375,9.176372 0.75,9.595642 0.4125,0.419269 2.760152,0.538539 5.217004,0.265044 3.205614,-0.356846 5.111674,-1.246738 6.75,-3.151405 z M 107,29 V 10 h 2.5 2.5 v 17 17 h 7 c 6.33333,0 7,0.190476 7,2 0,1.859649 -0.66667,2 -9.5,2 H 107 Z m 63,-0.06642 V 9.8671573 l 2.75,0.3164227 c 2.26914,0.261093 4.586,2.884218 13.25,15.001514 L 196.5,39.870185 196.77605,24.935092 197.05209,10 H 199.52605 202 v 19 19 h -2.85835 c -2.54559,0 -3.99538,-1.613919 -13.25,-14.75 L 175.5,18.5 175.22327,33.25 174.94653,48 H 172.47327 170 V 28.933578 Z"
       id="path1452"
       inkscape:connector-curvature="0" />
    <path
       style="fill:#ffffff;fill-opacity:1"
       d="M 61.25,72.337719 C 60.5625,72.060307 60,71.405001 60,70.881483 60,70.33264 60.886222,70.403924 62.093141,71.049847 64.716854,72.454016 69,71.461633 69,69.449563 69,67.900243 68.441891,67.589963 63.860301,66.592155 58.272295,65.375162 59.629144,59 65.476167,59 c 1.873189,0 3.677005,0.43882 4.008479,0.975156 0.359252,0.581282 -0.929614,0.884214 -3.190983,0.75 C 63.147156,60.538409 62.5,60.825957 62.5,62.41078 c 0,1.293594 1.130508,2.289764 3.5,3.084096 3.748284,1.256548 5.362439,5.026269 2.837492,6.626721 -1.443515,0.914981 -5.564626,1.032367 -7.587492,0.216122 z M 73,66 v -7 l 4.75,0.168103 c 4.351823,0.154012 4.43565,0.200985 1,0.560365 -3.171218,0.33172 -3.75,0.759022 -3.75,2.768539 0,1.931528 0.608276,2.451762 3.25,2.779597 l 3.25,0.403322 -3.25,0.160037 C 75.35668,65.982436 75,66.322619 75,68.939635 c 0,2.660509 0.356072,2.976881 3.75,3.331897 3.43565,0.35938 3.351823,0.406353 -1,0.560365 L 73,73 Z m 12.168108,0.190983 C 84.98041,58.030207 85.368343,57.901004 90.134003,64.537067 91.896773,66.99168 93.689239,69 94.11726,69 c 0.428022,0 0.943496,-2.3625 1.145498,-5.25 0.317733,-4.541796 0.392231,-4.272005 0.55226,2 0.10174,3.9875 -0.152518,7.240296 -0.565018,7.228435 -0.4125,-0.01186 -2.55,-2.54018 -4.75,-5.618487 l -4,-5.596923 -0.581892,5.868488 L 85.336215,73.5 Z M 100,66 v -7 l 4.25,0.168103 4.25,0.168103 -3.75,0.392262 c -3.2014,0.334877 -3.75,0.749166 -3.75,2.831897 0,2.129064 0.47738,2.456393 3.75,2.571276 l 3.75,0.131641 -3.5,0.618359 c -2.86405,0.506003 -3.55637,1.106414 -3.81025,3.304402 -0.28223,2.443433 0.0339,2.721797 3.5,3.081897 L 108.5,72.663794 104.25,72.831897 100,73 Z m 12.69889,5.219768 c -2.2741,-2.512847 -2.20106,-8.455338 0.12985,-10.56478 2.0435,-1.849339 7.696,-2.232984 8.71068,-0.591208 0.44407,0.718519 -0.48272,0.849883 -2.85552,0.404743 -3.04656,-0.571539 -3.7381,-0.315442 -5.20867,1.928935 -2.1584,3.294139 -1.25178,7.291602 1.98859,8.76801 3.0562,1.392498 5.53618,0.467672 5.53618,-2.064532 0,-1.239422 -0.82852,-2.121415 -2.25,-2.395203 -1.88612,-0.363283 -1.79502,-0.455393 0.56336,-0.569551 2.59419,-0.125573 2.78895,0.116999 2.5,3.113818 -0.28253,2.930289 -0.66269,3.279365 -3.86447,3.548508 -2.48118,0.208569 -4.06299,-0.267101 -5.25,-1.57874 z m 14.58361,-5.236413 c 1.7147,-3.859155 3.51864,-6.882976 4.00876,-6.719602 C 132.54921,59.683069 138.10808,73 137.02517,73 c -0.48972,0 -1.17604,-0.9 -1.52517,-2 -0.47068,-1.482986 -1.51303,-2 -4.0322,-2 -2.37398,0 -3.71987,0.602489 -4.4678,2 -0.5887,1.1 -1.46744,2 -1.95274,2 -0.48531,0 0.52055,-3.15749 2.23524,-7.016645 z M 134,67.61481 c 0,-0.211855 -0.64006,-1.899355 -1.42235,-3.75 L 131.1553,60.5 l -1.10768,2.894075 c -0.60922,1.591742 -1.34572,3.279242 -1.63666,3.75 C 128.12001,67.614834 129.25852,68 130.94098,68 132.62344,68 134,67.826664 134,67.61481 Z M 140,66 c 0,-4 0.42857,-7 1,-7 0.56314,0 1,2.813212 1,6.439635 v 6.439634 l 3.75,0.392263 c 3.43565,0.35938 3.35182,0.406353 -1,0.560365 L 140,73 Z m -35.03579,-9.835646 c 0.6588,-1.284606 1.47209,-2.061392 1.80729,-1.726191 0.3352,0.335201 -0.20383,1.386242 -1.19784,2.335647 -1.72775,1.650222 -1.75457,1.6234 -0.60945,-0.609456 z M 78,56.622445 c 0,-0.207656 0.7875,-0.995156 1.75,-1.75 C 81.336056,53.628574 81.371426,53.663944 80.127555,55.25 78.821186,56.915748 78,57.445479 78,56.622445 Z M 6.020563,47.883964 C 1.8974593,46.238898 0,43.889162 0,40.428346 0,36.161587 2.2174305,35.478411 3.5,39.350018 5.610209,45.719964 13.858782,45.864379 16.870055,39.584098 19.016464,35.107567 16.538669,30.962666 9.8124042,27.777929 3.4673094,24.773668 2.0875293,23.314232 1.3612856,18.838917 -0.04731245,10.158744 12.197509,5.7228458 17.718197,12.913343 c 1.707529,2.223995 1.575843,2.858557 -0.746152,3.59553 -1.410899,0.447801 -2.57082,-0.02676 -3.812075,-1.559646 C 10.912333,12.173513 7.2767513,13.049154 6.3906566,16.579636 5.6076433,19.69941 7.1528933,21.537047 13.088534,24.544864 19.285512,27.68511 22,31.230622 22,36.184519 c 0,5.309459 -2.222754,9.218771 -6.357078,11.180636 -3.876893,1.839706 -6.0218723,1.955357 -9.622359,0.518809 z M 139.72846,47.673148 c -4.83704,-1.504575 -10.25687,-5.86399 -12.38378,-9.960843 -2.12236,-4.088092 -2.17316,-13.247801 -0.0955,-17.212305 4.94638,-9.438299 16.22863,-13.833568 25.5329,-9.946952 8.06133,3.367409 12.53817,9.989954 12.54605,18.559246 0.008,8.976841 -5.78313,16.31322 -14.82817,18.783927 -4.8128,1.314646 -5.90036,1.292123 -10.77154,-0.223073 z m 13.83255,-5.710857 c 3.541,-2.188453 7.45283,-9.059598 7.41703,-13.028015 -0.0365,-4.042299 -3.54008,-10.486231 -7.06682,-12.997492 -4.60678,-3.280314 -12.21566,-3.280314 -16.82244,0 -3.52674,2.511261 -7.03035,8.955193 -7.06682,12.997492 -0.0351,3.892762 3.82345,10.769408 7.28812,12.988718 4.28874,2.747164 11.83997,2.765424 16.25093,0.0393 z M 142.18358,34.25 c 0.24853,-2.159969 0.90645,-2.817891 3.06642,-3.066422 2.47092,-0.284311 2.75,-0.0052 2.75,2.75 C 148,36.688807 147.68881,37 144.93358,37 c -2.75523,0 -3.03431,-0.279081 -2.75,-2.75 z m 0.48309,-7.916667 C 142.3,25.966667 142,24.616667 142,23.333333 142,21.407407 142.52381,21 145,21 c 2.66667,0 3,0.333333 3,3 0,2.47619 -0.40741,3 -2.33333,3 -1.28334,0 -2.63334,-0.3 -3,-0.666667 z M 27,29 V 10 H 29.5 32 V 29 48 H 29.5 27 Z m 11,0 V 10 l 2.75,0.03973 c 2.247347,0.03247 3.833589,1.480703 8.678287,7.92326 l 5.928288,7.883532 6.067527,-7.923259 C 66.410237,11.412132 67.982497,10 70.245815,10 H 73 V 29 48 H 70.526046 68.052092 L 67.776046,32.85175 67.5,17.7035 61.644083,25.35175 C 58.423329,29.558287 55.621535,33 55.417875,33 55.214214,33 52.449377,29.546668 49.273792,25.325928 L 43.5,17.651856 43.223954,32.825928 42.947908,48 H 40.473954 38 Z M 79,28.569551 V 9 h 4.875 c 7.616408,0 11.013477,1.029125 14.617722,4.428365 3.558088,3.355709 5.206968,8.647717 4.086018,13.113916 -0.35275,1.405485 -2.12814,4.177772 -3.945296,6.160638 -2.875843,3.138088 -4.03167,3.66556 -8.920583,4.070986 l -5.616654,0.465777 -0.298104,5.130159 c -0.258625,4.45077 -0.596071,5.172477 -2.548103,5.44971 L 79,48.139102 Z M 93.020016,31.48965 C 101.86528,26.915585 98.214955,14 88.076923,14 H 84 v 9.5 9.5 h 3.04966 c 1.677313,0 4.363973,-0.679658 5.970356,-1.51035 z M 107,29 V 10 h 2.5 2.5 v 17 17 h 7 c 6.33333,0 7,0.190476 7,2 0,1.859649 -0.66667,2 -9.5,2 H 107 Z m 63,0 V 10 l 2.75,0.02441 c 2.39928,0.0213 4.08909,1.928276 13.25,14.952841 L 196.5,39.90568 196.77605,24.95284 197.05209,10 H 199.52605 202 v 19 19 h -2.83342 c -2.50705,0 -4.03328,-1.68408 -13.25,-14.620341 L 175.5,18.759319 175.22327,33.379659 174.94653,48 H 172.47327 170 Z"
       id="path1450"
       inkscape:connector-curvature="0" />
    <path
       style="fill:#ffffff;fill-opacity:1"
       d="m 61.25,72.337719 c -2.694741,-1.087351 -1.069585,-2.170787 1.77089,-1.180592 2.240131,0.780914 3.403171,0.735823 4.5,-0.174464 2.324521,-1.929181 1.776517,-2.825491 -2.418067,-3.954976 -4.300835,-1.158094 -5.636222,-3.162505 -4.064053,-6.100129 1.149894,-2.148597 7.33851,-2.744157 8.527318,-0.820625 0.47217,0.763987 -0.234719,0.905122 -2.281641,0.455542 -2.052849,-0.450881 -3.34913,-0.189463 -4.211195,0.849262 -1.638902,1.974756 -0.713971,3.288627 2.869118,4.075605 4.043876,0.888185 5.496998,2.823175 4.09184,5.448736 -1.073194,2.005282 -5.527011,2.71595 -8.78421,1.401641 z M 73,66 v -7 l 4.75,0.168103 c 4.351823,0.154012 4.43565,0.200985 1,0.560365 C 75.548602,60.063345 75,60.477634 75,62.560365 75,64.689558 75.452882,65 78.559017,65 80.677051,65 81.867803,65.404882 81.5,66 81.160081,66.55 79.558524,67 77.940983,67 75.490007,67 75,67.406475 75,69.439635 c 0,2.082731 0.548602,2.49702 3.75,2.831897 3.43565,0.35938 3.351823,0.406353 -1,0.560365 L 73,73 Z m 12.168108,0.25 C 85.075648,62.2625 85.3375,59.013255 85.75,59.029455 c 0.4125,0.0162 2.4375,2.357243 4.5,5.202316 L 94,69.404631 V 64.202315 C 94,61.341042 94.45,59 95,59 c 0.571429,0 1,3 1,7 0,3.85 -0.3375,6.990296 -0.75,6.978435 -0.4125,-0.01186 -2.55,-2.54018 -4.75,-5.618487 l -4,-5.596923 -0.581892,5.868488 L 85.336215,73.5 Z M 99,66 v -7 l 4.75,0.168103 c 4.35182,0.154012 4.43565,0.200985 1,0.560365 C 101.5486,60.063345 101,60.477634 101,62.560365 101,64.681853 101.45643,65 104.5,65 c 1.925,0 3.5,0.45 3.5,1 0,0.55 -1.6063,1 -3.56955,1 -3.12977,0 -3.53018,0.277207 -3.25,2.25 0.24049,1.693326 1.18549,2.402989 3.81955,2.868359 3.29329,0.581838 3.21946,0.626133 -1.25,0.75 L 99,73 Z m 13.57143,5.428571 c -2.04202,-2.042022 -2.04202,-8.81512 0,-10.857142 1.82031,-1.820312 7.97716,-2.110848 9.01871,-0.425586 0.49589,0.802375 -0.0621,0.952518 -1.86152,0.500892 -3.44127,-0.863703 -5.69289,0.12908 -6.78047,2.98965 -1.76453,4.641051 1.84525,9.198737 6.19273,7.818902 2.64685,-0.840077 2.36885,-4.218007 -0.39088,-4.749554 -1.92915,-0.37157 -1.85784,-0.452789 0.5,-0.569551 2.50213,-0.123907 2.75,0.179289 2.75,3.363818 0,3.406061 -0.10544,3.5 -3.92857,3.5 -2.2381,0 -4.60476,-0.67619 -5.5,-1.571429 z M 127.27511,66 c 1.71062,-3.85 3.46905,-7 3.9076,-7 0.6448,0 6.81729,12.348372 6.81729,13.638315 0,1.295942 -1.98067,-0.002 -2.5,-1.638315 -0.47068,-1.482986 -1.51303,-2 -4.0322,-2 -2.37398,0 -3.71987,0.602489 -4.4678,2 -0.5887,1.1 -1.46744,2 -1.95274,2 -0.48531,0 0.51722,-3.15 2.22785,-7 z m 5.57505,-1 c -0.5752,-1.65 -1.35313,-3 -1.72875,-3 -0.37561,0 -1.1925,1.35 -1.81531,3 -1.09393,2.898159 -1.03525,3 1.72874,3 2.74476,0 2.81859,-0.122012 1.81532,-3 z M 140,66 c 0,-4 0.42857,-7 1,-7 0.55556,0 1,2.666667 1,6 v 6 h 3.5 c 1.925,0 3.5,0.45 3.5,1 0,0.55 -2.025,1 -4.5,1 H 140 Z M 78.232073,56 c 0.686961,-1.1 1.606607,-2 2.043658,-2 0.43705,0 0.312971,0.9 -0.275731,2 -0.588702,1.1 -1.508348,2 -2.043658,2 -0.539143,0 -0.41615,-0.892122 0.275731,-2 z M 104,57.244889 c 0,-0.55 0.675,-1.5602 1.5,-2.244889 0.83674,-0.694433 1.5,-0.802716 1.5,-0.244889 0,0.55 -0.675,1.5602 -1.5,2.244889 -0.83674,0.694433 -1.5,0.802716 -1.5,0.244889 z M 3.8978832,46.717831 C 1.2515913,44.940464 0.43302699,43.641445 0.19722046,40.845073 -0.16536572,36.545252 2.4417091,34.639456 3.4098022,38.496646 4.3042952,42.06059 6.7734703,44 10.416441,44 c 4.03293,0 6.916892,-2.918614 6.916892,-7 0,-3.720585 -2.505643,-6.542882 -8.5137206,-9.589656 C 0.49341995,23.188024 -1.3887498,17.234904 3.9230769,11.923077 8.0362004,7.8099534 14.136129,8.2478294 17.718197,12.913343 c 1.696835,2.210067 1.575671,2.858612 -0.667045,3.570422 -1.258151,0.399322 -2.675801,-0.108414 -4,-1.432613 C 10.587872,12.587872 9.6381303,12.504727 7.5714286,14.571429 4.1664544,17.976403 5.6852552,20.516201 13.807721,25 c 5.989741,3.306483 8.444934,6.776392 8.375099,11.836477 -0.06946,5.032716 -2.602219,9.022986 -6.855105,10.799955 -4.627071,1.933314 -7.531167,1.699915 -11.4298318,-0.918601 z M 138.63726,47.535187 C 125.4302,42.827005 121.12825,26.75715 130.2835,16.32989 c 6.45934,-7.3567791 15.59708,-9.1869973 24.27574,-4.86224 12.35722,6.157865 14.84462,21.391648 5.08623,31.150042 -6.02899,6.028989 -13.18899,7.704966 -21.00821,4.917495 z m 14.95593,-5.739475 c 6.73043,-4.611765 8.86473,-13.831217 4.83235,-20.87405 -2.57262,-4.493233 -10.15988,-8.38346 -14.6833,-7.528588 -8.04499,1.520405 -13.08085,7.522966 -13.11038,15.627083 -0.0193,5.297212 2.21826,9.56621 6.67226,12.729843 4.31683,3.066202 11.8501,3.087343 16.28907,0.04571 z M 142,34 c 0,-2.666667 0.33333,-3 3,-3 2.66667,0 3,0.333333 3,3 0,2.666667 -0.33333,3 -3,3 -2.66667,0 -3,-0.333333 -3,-3 z m 0,-10 c 0,-2.666667 0.33333,-3 3,-3 2.66667,0 3,0.333333 3,3 0,2.666667 -0.33333,3 -3,3 -2.66667,0 -3,-0.333333 -3,-3 z M 27.228407,28.75 C 27.489317,10.257198 27.57867,9.5 29.5,9.5 c 1.92133,0 2.010683,0.757198 2.271593,19.25 L 32.043186,48 H 29.5 26.956814 Z M 38,28.5 C 38,10.353472 38.125552,9 39.80887,9 c 2.481482,0 4.1249,1.496482 9.5612,8.706344 2.573802,3.413489 5.090953,6.46055 5.59367,6.771246 0.502718,0.310697 3.681586,-3.070707 7.064152,-7.514231 4.792902,-6.296217 6.627012,-8.0111884 8.311114,-7.7712462 2.118216,0.3017925 2.16637,0.6889475 2.432587,19.5578872 L 73.043186,48 H 70.547639 68.052092 L 67.776046,32.825928 67.5,17.651856 61.703445,25.356172 c -3.188106,4.237374 -6.179901,7.467396 -6.648433,7.177827 -0.468533,-0.289569 -3.260083,-3.685535 -6.203445,-7.546591 L 43.5,17.967307 43.223954,32.983653 42.947908,48 H 40.473954 38 Z m 41,0 V 9 l 6.25,0.00155 c 3.95392,9.831e-4 7.528482,0.6438854 9.730067,1.75 C 108.44475,17.516445 103.73272,37 88.631966,37 H 84 v 5.5 C 84,47.7 83.863636,48 81.5,48 H 79 Z m 12.881161,3.391583 C 95.360096,30.67882 98,26.615165 98,22.472737 98,18.257535 93.013672,14 88.076923,14 H 84 v 9.5 c 0,9.305855 0.04804,9.5 2.350777,9.5 1.292927,0 3.7816,-0.498788 5.530384,-1.108417 z M 107.22841,28.75 C 107.48932,10.257198 107.57867,9.5 109.5,9.5 c 1.91213,0 2.01202,0.757871 2.27361,17.25 L 112.04723,44 h 6.97638 C 125.33333,44 126,44.191121 126,46 c 0,1.859967 -0.66667,2 -9.52159,2 h -9.5216 z M 170,28.968615 c 0,-15.637341 0.25668,-19.1298808 1.43926,-19.583681 2.51931,-0.9667502 4.1609,0.793485 14.97473,16.057068 L 197,40.384005 V 24.622451 8.8608981 l 2.25,0.3195509 c 2.2334,0.3171938 2.252,0.4615504 2.52159,19.569551 l 0.2716,19.25 h -2.95811 c -2.67239,0 -3.95421,-1.412304 -13.27159,-14.622651 L 175.5,18.754699 175.22327,33.377349 174.94653,48 H 172.47327 170 Z"
       id="path1448"
       inkscape:connector-curvature="0" />
    <path
       style="fill:#ffffff;fill-opacity:1"
       d="m 60.666667,72.333333 c -1.51972,-1.519719 -0.480829,-2.140424 2.264619,-1.35304 2.021238,0.579683 3.495437,0.428165 4.748428,-0.488045 2.213354,-1.618443 1.840574,-2.046791 -3.22023,-3.700252 -4.309461,-1.407982 -5.726222,-4.495807 -3.073065,-6.697732 1.840222,-1.527249 7.811254,-1.045921 8.376399,0.675227 0.332105,1.011423 -0.117137,1.026193 -2.209928,0.07265 -2.172247,-0.989742 -2.900404,-0.923202 -4.208154,0.384548 C 61.501083,63.070346 62.321105,65 64.948233,65 c 1.00661,0 2.839956,0.817652 4.074104,1.817004 1.910473,1.547007 2.070301,2.141384 1.0756,4 C 69.2118,72.472765 68.012307,73 65.131483,73 63.042501,73 61.033333,72.7 60.666667,72.333333 Z M 73,66 v -7 l 4.75,0.168103 c 4.351823,0.154012 4.43565,0.200985 1,0.560365 C 75.548602,60.063345 75,60.477634 75,62.560365 75,64.689558 75.452882,65 78.559017,65 80.677051,65 81.867803,65.404882 81.5,66 81.160081,66.55 79.558524,67 77.940983,67 75.666667,67 75,67.453363 75,69 c 0,1.619048 0.666667,2 3.5,2 1.925,0 3.5,0.45 3.5,1 0,0.55 -2.025,1 -4.5,1 H 73 Z m 12.162997,0.25 C 85.073348,62.2625 85.3375,59.013255 85.75,59.029455 c 0.4125,0.0162 2.4375,2.357243 4.5,5.202316 L 94,69.404631 V 64.202315 C 94,61.341042 94.45,59 95,59 c 0.571429,0 1,3 1,7 0,3.85 -0.353945,7 -0.786545,7 -0.4326,0 -2.5701,-2.3625 -4.75,-5.25 L 86.5,62.5 85.912997,68 85.325993,73.5 Z M 99,66 v -7 l 5.25,0.141905 c 5.13836,0.138888 5.16494,0.154837 1.25,0.75 -3.15969,0.480348 -4.06713,1.080768 -4.31955,2.858095 -0.28018,1.972793 0.12023,2.25 3.25,2.25 1.96325,0 3.56955,0.45 3.56955,1 0,0.55 -1.575,1 -3.5,1 -2.83333,0 -3.5,0.380952 -3.5,2 0,1.612514 0.66667,2 3.44098,2 1.89254,0 3.7191,0.45 4.05902,1 0.38091,0.616332 -1.32295,1 -4.44098,1 H 99 Z m 14.31256,6.214335 c -4.03327,-2.564574 -3.18673,-11.705844 1.18565,-12.803243 3.28207,-0.823745 6.77086,-0.13643 7.28916,1.436014 0.36056,1.093868 0.0225,1.121525 -1.79816,0.147119 -1.64752,-0.881725 -2.8717,-0.913166 -4.6157,-0.118545 C 113.45331,61.750581 113,62.718444 113,65.943377 c 0,4.430984 2.09747,6.366906 5.83833,5.388651 C 121.6863,70.587265 121.77131,67 118.94098,67 c -1.13246,0 -1.7809,-0.45 -1.44098,-1 0.33992,-0.55 1.49148,-1 2.55902,-1 1.59781,0 1.94098,0.707208 1.94098,4 0,3.958278 -0.0391,3.99984 -3.75,3.984687 -2.0625,-0.0084 -4.28435,-0.35508 -4.93744,-0.770352 z M 126.60478,67.25 c 1.41875,-3.1625 2.81122,-6.3125 3.09438,-7 0.28315,-0.6875 0.91219,-1.25 1.39787,-1.25 1.1314,0 7.11392,13.122379 6.33681,13.899491 -0.32111,0.321117 -1.02245,-0.199903 -1.55853,-1.157821 -1.26153,-2.254222 -8.39305,-2.440807 -9.23694,-0.24167 -0.31658,0.825 -1.03405,1.5 -1.59438,1.5 -0.56032,0 0.14203,-2.5875 1.56079,-5.75 z m 6.19192,-2.40335 c -1.02732,-2.946969 -1.18754,-3.032632 -2.44798,-1.308871 C 128.30932,66.326817 128.72151,68 131.44798,68 c 2.31217,0 2.38699,-0.174946 1.34872,-3.15335 z M 140,66 c 0,-4 0.42857,-7 1,-7 0.55556,0 1,2.666667 1,6 v 6 h 3.5 c 1.925,0 3.5,0.45 3.5,1 0,0.55 -2.025,1 -4.5,1 H 140 Z M 78,56 c 0.588702,-1.1 1.520368,-2 2.070368,-2 0.64321,0 0.618104,0.713578 -0.07037,2 -0.588702,1.1 -1.520368,2 -2.070368,2 C 77.286422,58 77.311528,57.286422 78,56 Z m 26,1.277432 c 0,-1.258249 2.85836,-3.752402 3.5303,-3.080469 0.26508,0.265081 -0.4208,1.298951 -1.52417,2.297489 C 104.90276,57.49299 104,57.845331 104,57.277432 Z M 5.5,48.054643 C 1.9198118,46.589301 -0.16216176,43.406237 0.17966504,39.920552 0.49157444,36.739941 3,34.393024 3,37.281808 3,40.345027 7.0354752,44 10.417593,44 14.578024,44 17,41.367551 17,36.845573 17,32.847188 14.791827,30.375726 8.3160816,27.12624 0.49938535,23.203873 -1.2619946,17.108148 3.9230769,11.923077 c 3.85496,-3.85496 9.0737221,-4.0171874 12.6962411,-0.394668 1.390625,1.390625 2.345381,3.078125 2.121679,3.75 -0.688865,2.06897 -3.512374,1.950214 -5.702432,-0.239844 -1.687124,-1.687124 -2.47199,-1.87697 -4.11797,-0.996069 -4.6519339,2.48964 -3.0318666,7.123582 3.463926,9.908004 4.900018,2.100393 9.163905,6.717011 10.087465,10.921955 C 24.377409,43.547787 14.062668,51.559275 5.5,48.054643 Z M 27,29 V 9 H 29.5 32 V 29 49 H 29.5 27 Z m 11,0.06955 V 9 h 2.338225 c 1.739355,0 3.92647,2.048975 8.539352,8 3.410619,4.4 6.352191,8 6.536826,8 0.184636,0 3.120633,-3.6 6.524439,-8 4.732268,-6.117266 6.762079,-8 8.624947,-8 H 73 V 29.069551 49.139102 L 70.75,48.819551 C 68.553581,48.50761 68.488093,48.134145 68,33.136919 L 67.5,17.773838 61.986818,25.06608 c -3.03225,4.010734 -5.95725,7.302509 -6.5,7.315056 C 54.944068,32.393683 52.025,29.166324 49,25.209227 L 43.5,18.014507 43,33.257253 C 42.512148,48.129654 42.445333,48.507764 40.25,48.819551 L 38,49.139102 Z m 69.70264,19.29976 C 107.31619,47.982856 107,38.966667 107,28.333333 V 9 h 2.5 2.5 V 26.5 44 h 7.06955 c 6.7594,0 7.05553,0.09871 6.75,2.25 -0.29915,2.106365 -0.86519,2.268256 -8.86691,2.535977 -4.70104,0.157288 -8.86354,-0.03021 -9.25,-0.416666 z m 29.78878,-1.234293 C 129.51526,43.511525 124.07664,34.077444 125.36984,26.108373 126.28001,20.499667 130.97635,13.935206 136,11.249726 c 6.1385,-3.2814437 14.95601,-2.8681459 20.76052,0.973095 4.69712,3.108411 9.2506,11.369877 9.21752,16.723523 -0.0857,13.87561 -15.8393,23.93423 -28.48662,18.188674 z m 18.66954,-7.941916 C 159.95705,35.123493 160.5831,32.983005 160.01967,26 c -0.64502,-7.994227 -10.00427,-14.158323 -18.162,-11.961675 -10.9273,2.942416 -14.93626,16.984882 -7.1878,25.177217 3.8533,4.074045 5.92293,4.823019 12.24109,4.429894 4.8583,-0.30229 5.80306,-0.757033 9.25,-4.452335 z M 142.66667,37.333333 C 142.3,36.966667 142,35.391667 142,33.833333 142,31.351852 142.37255,31 145,31 c 2.7619,0 3,0.277778 3,3.5 0,3 -0.33333,3.5 -2.33333,3.5 -1.28334,0 -2.63334,-0.3 -3,-0.666667 z M 142,24 c 0,-2.666667 0.33333,-3 3,-3 2.66667,0 3,0.333333 3,3 0,2.666667 -0.33333,3 -3,3 -2.66667,0 -3,-0.333333 -3,-3 z m 28.70124,24.367903 C 170.31556,47.982223 170,38.966667 170,28.333333 V 9 h 2.41499 c 1.97352,0 4.39569,2.785047 13.25,15.235056 L 196.5,39.470112 196.77605,24.235056 197.05209,9 h 2.4951 2.49509 L 201.77114,28.75 201.5,48.5 H 199 c -2.07793,0 -4.27271,-2.485288 -13,-14.720677 L 175.5,19.058646 175,33.767529 c -0.41549,12.222867 -0.76176,14.758973 -2.04876,15.005247 -0.85182,0.163 -1.86432,-0.01919 -2.25,-0.404873 z M 78.44466,46.716382 c -0.270914,-0.70599 -0.369291,-9.36849 -0.218615,-19.25 L 78.5,9.5 85,9.2294057 c 7.772874,-0.3235839 12.357437,1.6199583 15.73007,6.6684773 2.89932,4.340024 2.96859,10.2356 0.17339,14.758327 C 98.230605,34.980975 94.298788,37 88.54966,37 H 84 v 5.5 C 84,47.718184 83.870294,48 81.468615,48 80.076354,48 78.715574,47.422372 78.44466,46.716382 Z M 95.25,28.968032 C 98.959152,24.922244 98.899132,20.745286 95.076923,16.923077 92.802129,14.648283 91.249663,14 88.076923,14 H 84 v 9.627808 9.627808 l 4.25,-0.643999 c 2.919453,-0.442383 5.110942,-1.58308 7,-3.643585 z"
       id="path1446"
       inkscape:connector-curvature="0" />
    <path
       style="fill:#ffffff;fill-opacity:1"
       d="m 60.666667,72.333333 c -1.403795,-1.403795 -0.554374,-1.970466 2.321061,-1.548442 1.64325,0.241178 3.743498,0.148489 4.667217,-0.205975 2.213671,-0.849466 0.518289,-2.598682 -3.904201,-4.028172 C 61.236365,65.738017 60.5,64.936747 60.5,63.013475 c 0,-3.235645 4.465515,-5.637482 7.480894,-4.0237 2.881696,1.542237 2.581141,3.174409 -0.377417,2.049567 -1.675806,-0.63714 -2.953453,-0.503918 -4.248427,0.44299 -2.15529,1.575986 -1.460948,2.547155 2.84754,3.98282 C 72.883383,67.691312 72.067253,73 65.044222,73 63.003233,73 61.033333,72.7 60.666667,72.333333 Z M 73,66 v -7 h 4.5 c 2.475,0 4.5,0.45 4.5,1 0,0.55 -1.575,1 -3.5,1 -2.833333,0 -3.5,0.380952 -3.5,2 0,1.619048 0.666667,2 3.5,2 1.925,0 3.5,0.45 3.5,1 0,0.55 -1.575,1 -3.5,1 -2.833333,0 -3.5,0.380952 -3.5,2 0,1.619048 0.666667,2 3.5,2 1.925,0 3.5,0.45 3.5,1 0,0.55 -2.025,1 -4.5,1 H 73 Z m 11,0 c 0,-8.58463 1.085834,-8.891831 6.25,-1.768229 L 94,69.404631 V 64.202315 C 94,61.341042 94.45,59 95,59 c 0.571429,0 1,3 1,7 0,3.85 -0.373716,7 -0.83048,7 -0.456764,0 -2.369264,-2.1375 -4.25,-4.75 L 87.5,63.5 87.195209,68.25 C 86.981218,71.58492 86.459873,73 85.445209,73 84.322569,73 84,71.437606 84,66 Z m 15,0 v -7 h 5.05902 c 3.11803,0 4.82189,0.383668 4.44098,1 -0.33992,0.55 -2.16648,1 -4.05902,1 C 101.66667,61 101,61.387486 101,63 c 0,1.619048 0.66667,2 3.5,2 1.925,0 3.5,0.45 3.5,1 0,0.55 -1.575,1 -3.5,1 -2.83333,0 -3.5,0.380952 -3.5,2 0,1.612514 0.66667,2 3.44098,2 1.89254,0 3.7191,0.45 4.05902,1 0.38091,0.616332 -1.32295,1 -4.44098,1 H 99 Z m 13.82815,5.989273 c -2.21758,-1.327994 -3.15971,-5.987009 -1.88738,-9.333482 1.27722,-3.359356 5.58539,-5.192718 8.78089,-3.736752 C 123.20849,60.50775 122.45099,61.5 117.75129,61.5 H 113.5 V 66 c 0,4.478157 0.0182,4.501506 3.75,4.810365 3.22038,0.266532 3.75,0.01938 3.75,-1.75 C 121,67.666667 120.35287,67 119,67 c -1.1,0 -2,-0.47989 -2,-1.066422 0,-0.586533 1.2375,-0.924033 2.75,-0.75 2.41592,0.277982 2.75,0.741615 2.75,3.816422 0,3.375795 -0.14195,3.508703 -4,3.74523 -2.2,0.134877 -4.75233,-0.205304 -5.67185,-0.755957 z m 14.12287,-5.708875 c 1.57663,-3.695781 3.36737,-6.886529 3.97944,-7.090552 1.26073,-0.420244 7.53514,12.677889 6.54662,13.666404 -0.35233,0.352333 -1.21592,-0.146187 -1.91908,-1.107822 -1.62297,-2.219546 -8.09408,-2.399778 -8.91963,-0.248428 -0.31658,0.825 -1.02073,1.5 -1.56477,1.5 -0.54404,0 0.3008,-3.023821 1.87742,-6.719602 z m 5.72784,-1.320246 c -1.04185,-2.760156 -1.26387,-2.880583 -2.41314,-1.30887 C 128.31402,66.32039 128.75719,68 131.41314,68 c 2.27326,0 2.34662,-0.176199 1.26572,-3.039848 z M 140,66 c 0,-4 0.42857,-7 1,-7 0.55556,0 1,2.666667 1,6 v 6 h 3.5 c 1.925,0 3.5,0.45 3.5,1 0,0.55 -2.025,1 -4.5,1 H 140 Z M 78,56 c 1.056956,-1.97494 3,-2.752158 3,-1.2 C 81,55.851669 78.828049,58 77.764816,58 77.305465,58 77.411298,57.1 78,56 Z m 26,1.277432 c 0,-1.258249 2.85836,-3.752402 3.5303,-3.080469 0.26508,0.265081 -0.4208,1.298951 -1.52417,2.297489 C 104.90276,57.49299 104,57.845331 104,57.277432 Z M 3.7092859,47.223391 C 0.76839639,45.40726 -0.385662,42.705238 0.16712024,38.930041 0.53541403,36.414798 3,34.980847 3,37.281808 3,38.078469 3.9326611,39.915969 5.0725801,41.365141 9.1937668,46.604381 17,43.534338 17,36.674314 17,32.85353 14.402735,29.975015 8.9179002,27.717031 1.0716845,24.486918 -1.2618805,17.108034 3.9230769,11.923077 c 3.85496,-3.85496 9.0737221,-4.0171874 12.6962411,-0.394668 1.390625,1.390625 2.345381,3.078125 2.121679,3.75 -0.630684,1.894227 -3.943255,2.11156 -4.943438,0.324332 C 12.530897,13.339342 8.2913407,13.587108 7,16 c -1.4994922,2.801827 0.1116078,5.360554 4.715423,7.488972 5.375998,2.48541 10.164364,7.353317 10.855137,11.035455 1.864358,9.937881 -10.189996,18.053865 -18.8612741,12.698964 z M 27,29 V 9 H 29.5 32 V 29 49 H 29.5 27 Z m 10.763484,19.25 c -0.195002,-0.4125 -0.179407,-9.4125 0.03466,-20 L 38.187343,9 h 2.361388 c 1.781353,0 3.886524,2.003502 8.570398,8.156494 6.000052,7.881996 6.262383,8.089227 7.794941,6.157687 0.872261,-1.099344 3.722961,-4.769767 6.334887,-8.156494 C 66.824628,10.52133 68.615826,9 70.498957,9 H 73 V 29 49 H 70.525393 68.050786 L 67.775393,33.509362 67.5,18.018723 61.978102,25.259362 C 58.941057,29.241713 55.928559,32.5 55.28366,32.5 c -0.644898,0 -3.672544,-3.341582 -6.728101,-7.425738 L 43,17.648523 V 33.324262 49 h -2.440983 c -1.342541,0 -2.60053,-0.3375 -2.795533,-0.75 z M 107,29 V 9 h 2.5 2.5 V 26.5 44 h 7 c 6.8,0 7,0.07143 7,2.5 0,2.491228 -0.0333,2.5 -9.5,2.5 H 107 Z m 30.49142,18.135018 c -8.3152,-3.777516 -13.37349,-12.767269 -12.07099,-21.452951 2.62831,-17.5268266 26.56888,-22.6910019 36.93968,-7.968188 11.31563,16.064133 -6.88157,37.592511 -24.86869,29.421139 z m 14.30824,-4.540004 C 153.28485,41.822272 155.625,39.986018 157,38.51445 c 2.17313,-2.325756 2.5,-3.589652 2.5,-9.666777 0,-6.926329 -0.0391,-7.027648 -4.21128,-10.919436 C 151.41432,14.31423 150.62386,14 145.40714,14 c -5.38436,0 -5.8965,0.226204 -10.15612,4.48582 l -4.48582,4.485819 0.41119,6.457579 c 0.44175,6.937526 1.80316,9.300268 7.32361,12.710222 3.56697,2.2033 9.54689,2.40814 13.29966,0.455574 z M 142,34.5 c 0,-3.222222 0.2381,-3.5 3,-3.5 2.7619,0 3,0.277778 3,3.5 0,3.222222 -0.2381,3.5 -3,3.5 -2.7619,0 -3,-0.277778 -3,-3.5 z M 142,24 c 0,-2.666667 0.33333,-3 3,-3 2.66667,0 3,0.333333 3,3 0,2.666667 -0.33333,3 -3,3 -2.66667,0 -3,-0.333333 -3,-3 z m 28,5 V 9 h 2.45463 c 2.02136,0 4.36009,2.666119 13.25,15.104821 L 196.5,39.209643 196.77605,24.104821 197.05209,9 H 199.52605 202 v 20 20 h -2.32569 c -2.88286,0 -4.1672,-1.430348 -15.26473,-17 L 175.5,19.5 175.22327,34.25 174.94653,49 H 172.47327 170 Z M 78,28.5 V 9 h 7.04966 c 11.063691,0 16.87927,4.204931 17.70531,12.801764 0.8428,8.771181 -4.246934,14.521471 -14.00497,15.822557 L 84,38.257661 v 4.87117 C 84,47.874574 83.922754,48 81,48 h -3 z m 17.411106,0.423275 C 96.834998,27.231076 98,25.00225 98,23.970328 98,18.49134 93.067193,14 87.04966,14 H 84 v 9 9 h 4.411106 c 3.698045,0 4.829605,-0.497357 7,-3.076725 z"
       id="path1444"
       inkscape:connector-curvature="0" />
    <path
       style="fill:#ffffff;fill-opacity:1"
       d="M 62.25,72.968838 C 58.608764,71.50524 59.669708,70.146012 64,70.726826 c 3.234838,0.433882 4,0.228034 4,-1.076105 0,-0.933294 -1.158452,-1.889356 -2.75,-2.269556 C 61.449373,66.473244 60,65.136206 60,62.53807 c 0,-2.699251 4.058978,-4.812355 7.557303,-3.934332 3.863472,0.96967 2.995121,3.141668 -1.203508,3.010325 -5.08905,-0.159199 -5.401261,2.026796 -0.478783,3.352281 5.06528,1.363938 6.448376,4.543623 3.141237,7.221582 -2.472286,2.001936 -3.448269,2.114577 -6.766249,0.780912 z m 51.78379,-0.246267 C 108.76604,70.056997 109.109,61.049656 114.55711,58.978288 117.67147,57.79421 122,58.705669 122,60.545537 c 0,0.967093 -0.97981,1.169721 -3.60008,0.744509 -4.01951,-0.652276 -5.35922,0.532021 -5.38461,4.759954 -0.019,3.16076 1.67436,4.95 4.68469,4.95 1.63333,0 2.3,-0.57971 2.3,-2 0,-1.111111 -0.66667,-2 -1.5,-2 -0.825,0 -1.5,-0.47989 -1.5,-1.066422 0,-0.586533 1.2375,-0.924033 2.75,-0.75 2.29158,0.263675 2.80224,0.858293 3.06341,3.567066 0.26301,2.727967 -0.10924,3.411332 -2.3151,4.25 -3.28595,1.249315 -3.46095,1.241787 -6.46452,-0.278073 z M 73,65.5 c 0,-6.1881 0.278072,-7.5 1.589707,-7.5 0.874339,0 2.410604,-1.0125 3.413921,-2.25 1.003317,-1.2375 2.152074,-1.923375 2.552793,-1.524166 0.400719,0.399209 0.159355,1.411709 -0.536365,2.25 C 78.975145,57.734874 79.037332,58 80.377555,58 81.2699,58 82,58.675 82,59.5 82,60.547619 80.944444,61 78.5,61 75.666667,61 75,61.380952 75,63 c 0,1.619048 0.666667,2 3.5,2 1.925,0 3.5,0.45 3.5,1 0,0.55 -1.575,1 -3.5,1 -2.833333,0 -3.5,0.380952 -3.5,2 0,1.619048 0.666667,2 3.5,2 1.925,0 3.5,0.45 3.5,1 0,0.55 -2.025,1 -4.5,1 H 73 Z m 11,0.559017 c 0,-3.817541 0.410224,-7.194516 0.91161,-7.504389 0.501385,-0.309873 2.638885,1.795904 4.75,4.679504 L 93.5,68.477041 93.813132,63.988521 C 94.366359,56.058405 96,57.03811 96,65.3 c 0,4.235 -0.422039,7.7 -0.937864,7.7 -0.515826,0 -2.428326,-2.081678 -4.25,-4.625951 L 87.5,63.748099 87.195209,68.374049 C 86.982607,71.600793 86.453287,73 85.445209,73 84.32374,73 84,71.445158 84,66.059017 Z m 15,-0.08377 c 0,-6.591941 0.155609,-7.083913 2.52563,-7.984992 1.38909,-0.528133 2.78723,-1.641995 3.10698,-2.475249 C 104.95236,54.681754 105.89593,54 106.72943,54 c 1.27451,0 1.30476,0.253874 0.19025,1.596777 -1.11818,1.347322 -1.05591,1.747483 0.39859,2.56146 C 109.71551,59.499802 108.46052,61 104.94098,61 102.66667,61 102,61.453363 102,63 c 0,1.555556 0.66667,2 3,2 1.65,0 3,0.45 3,1 0,0.55 -1.35,1 -3,1 -2.33333,0 -3,0.444444 -3,2 0,1.619048 0.66667,2 3.5,2 1.925,0 3.5,0.45 3.5,1 0,0.55 -2.25,1 -5,1 H 99 V 65.975249 Z M 124.06637,72.25 c 0.17295,-1.954402 6.54281,-13.727925 7.34004,-13.566726 1.20355,0.243356 6.80449,13.439164 6.03207,14.211574 -0.3311,0.331104 -1.17732,-0.184785 -1.88048,-1.14642 -1.59726,-2.18438 -7.38615,-2.359838 -8.19637,-0.248428 -0.57821,1.506788 -3.41945,2.153454 -3.29526,0.75 z m 8.62936,-7.245155 -1.13055,-2.995156 -1.24715,2.245156 C 128.53747,67.460245 128.6953,68 131.41314,68 c 2.26536,0 2.3439,-0.183409 1.28259,-2.995155 z M 140,65.5 c 0,-4.333333 0.42222,-7.5 1,-7.5 0.5641,0 1,2.833333 1,6.5 V 71 h 3.5 c 1.925,0 3.5,0.45 3.5,1 0,0.55 -2.025,1 -4.5,1 H 140 Z M 3.1934639,46.976579 C 0.19329389,45.14742 -0.08467012,44.575876 0.19346394,40.808037 0.54498296,36.046064 2.6122534,34.606913 3.5773815,38.45229 5.5886705,46.465904 17,45.147243 17,36.90121 17,33.666935 12.179966,28 9.429041,28 8.6813443,28 6.4789342,26.603384 4.5347962,24.896408 1.668438,22.379712 1,21.083609 1,18.042431 1,10.129908 9.9851785,6.0541007 16.365141,11.07258 c 3.188514,2.508086 3.354794,4.471755 0.507685,5.995481 -2.081189,1.113819 -3.811966,0.04396 -3.857513,-2.384483 -0.0084,-0.449033 -1.252813,-0.674033 -2.765313,-0.5 -2.2823311,0.262611 -2.8027233,0.861521 -3.060025,3.521726 -0.2913797,3.012535 0.053207,3.388663 5.729647,6.254122 C 20.275307,27.672563 22.5,30.766445 22.5,37.28286 c 0,4.347476 -0.401339,5.238618 -3.735315,8.293979 -3.034385,2.780806 -4.535581,3.42246 -8,3.419423 -2.5099987,-0.0022 -5.625145,-0.83319 -7.5712211,-2.019683 z M 27,29 V 9 H 29.5 32 V 29 49 H 29.5 27 Z m 10.445214,18.717826 c -0.270609,-0.705195 -0.368985,-9.592695 -0.218615,-19.75 L 37.5,9.5 l 3,-0.2348653 c 2.583807,-0.2022822 3.519245,0.4913721 6.742825,5.0000003 2.058553,2.879176 4.758553,6.488953 6,8.021728 L 55.5,25.073726 l 6,-7.997136 c 4.913294,-6.548713 6.498074,-8.0043304 8.75,-8.0368625 L 73,9 V 29 49 H 70.5 68 V 33.324262 17.648523 l -5.553123,7.425739 c -3.054218,4.084156 -5.904859,7.778879 -6.334758,8.210496 -0.429899,0.431617 -3.443494,-2.691807 -6.696877,-6.940943 L 43.5,18.618114 43.223954,33.809057 42.947908,49 h -2.505339 c -1.377936,0 -2.726746,-0.576978 -2.997355,-1.282174 z M 107,29 V 9 h 2.47639 2.47638 l 0.27362,17.25 0.27361,17.25 6.75,0.29569 c 6.41951,0.281212 6.75,0.415858 6.75,2.75 C 126,48.979204 125.91951,49 116.5,49 H 107 Z m 28.90728,17.673227 C 133.48328,45.393502 130.15,42.429738 128.5,40.087085 125.87548,36.36082 125.5,34.973158 125.5,29 c 0,-5.991881 0.37235,-7.357499 3.04159,-11.155373 4.23545,-6.026302 9.51198,-8.8076165 16.74825,-8.8281766 12.89252,-0.036631 21.68486,9.4878476 20.46622,22.1704486 C 164.79707,41.167375 155.89024,49 145.5,49 c -3.49874,0 -6.61901,-0.756842 -9.59272,-2.326773 z m 16.07279,-4.424781 C 153.8941,41.286801 156.52143,38.925 157.81857,37 c 3.21596,-4.772607 2.76976,-13.673203 -0.88139,-17.581318 -6.79353,-7.271664 -16.08083,-7.271664 -22.87436,0 -3.65115,3.908115 -4.09735,12.808711 -0.88139,17.581318 2.7049,4.014169 7.95622,6.996892 12.31857,6.996892 1.65,0 4.56603,-0.786801 6.48007,-1.748446 z M 142,34.5 c 0,-3.489293 0.12315,-3.614843 3.25,-3.313358 2.87481,0.277183 3.25,0.659688 3.25,3.313358 0,2.65367 -0.37519,3.036175 -3.25,3.313358 C 142.12315,38.114843 142,37.989293 142,34.5 Z m 0,-11.063358 c 0,-3.417812 0.13275,-3.55056 3.25,-3.25 2.85772,0.275536 3.28782,0.705633 3.56336,3.563358 0.30056,3.117252 0.16781,3.25 -3.25,3.25 C 142.14555,27 142,26.854453 142,23.436642 Z m 28,5.496936 V 8.8671553 l 2.72043,0.3164224 c 2.23314,0.2597448 4.60648,2.9638983 13.25,15.0968993 L 196.5,39.060954 196.77605,24.030477 197.05209,9 H 199.52605 202 v 20 20 h -2.77147 c -2.42975,0 -4.06344,-1.818636 -13.25,-14.75 L 175.5,19.5 175.22327,34.25 174.94653,49 H 172.47327 170 Z M 78,28.397384 V 8.7947676 l 8.275814,0.3526162 c 6.825111,0.2908046 8.797173,0.7617519 11.25,2.6866082 4.089986,3.20962 5.397896,5.896658 5.435016,11.166008 0.0585,8.308579 -4.948995,13.619087 -13.834347,14.671426 L 84,38.278582 v 4.860709 C 84,47.873412 83.921871,48 81,48 H 78 Z M 94.710751,29.75 C 100.85586,23.036086 96.46054,14 87.04966,14 H 84 v 9 9 h 4.325686 c 3.209044,0 4.857299,-0.58082 6.385065,-2.25 z"
       id="path1442"
       inkscape:connector-curvature="0" />
  </g>
</svg>
